<svg version="1.1" xmlns="http://www.w3.org/2000/svg" viewBox="0 0 825 1402" width="825" height="1402" class="excalidraw-svg">
  <!-- svg-source:excalidraw -->
  
  <defs>
    <style class="style-fonts">
      
    </style>
    
  </defs>
  <rect x="0" y="0" width="825" height="1402" fill="#ffffff"></rect><g stroke-linecap="round" transform="translate(10 10) rotate(0 382.5 600)"><path d="M32 0 C262.23 -1.47, 494.54 -0.23, 733 0 M32 0 C279.36 -0.66, 527.32 -1.37, 733 0 M733 0 C754.4 -0.74, 763.25 11.98, 765 32 M733 0 C752.36 -1.9, 762.71 12.95, 765 32 M765 32 C764.08 473.14, 763.63 913.02, 765 1168 M765 32 C764.4 410.55, 764.37 788.91, 765 1168 M765 1168 C764.55 1189.78, 754.83 1199.34, 733 1200 M765 1168 C767.14 1190.38, 753.66 1199.61, 733 1200 M733 1200 C581.32 1199.59, 428.44 1200.54, 32 1200 M733 1200 C585.46 1201, 438.2 1200.82, 32 1200 M32 1200 C10.4 1201.18, 1.5 1191.31, 0 1168 M32 1200 C9.32 1197.92, -0.33 1191.51, 0 1168 M0 1168 C1.21 914.73, 1.79 660.05, 0 32 M0 1168 C3.05 788.26, 2.45 408.73, 0 32 M0 32 C-0.63 12.54, 9.98 -1.1, 32 0 M0 32 C2.23 11.46, 10.4 1.8, 32 0" stroke="#1e1e1e" stroke-width="2" fill="none"></path></g><g transform="translate(76 1129) rotate(355.6723517968918 117 10)" stroke="none"><path fill="#1e1e1e" d="M 0.36,-3.10 Q 0.36,-3.10 5.24,-2.46 10.12,-1.81 16.52,-0.94 22.92,-0.07 31.30,0.58 39.69,1.25 49.59,1.83 59.48,2.41 71.19,3.24 82.90,4.07 95.66,5.30 108.43,6.52 121.33,7.91 134.23,9.30 146.87,10.46 159.52,11.63 170.91,12.41 182.29,13.19 191.74,13.82 201.19,14.44 208.39,14.99 215.58,15.55 220.32,15.78 225.06,16.02 228.93,16.38 232.80,16.75 233.27,16.90 233.74,17.05 234.14,17.34 234.53,17.63 234.82,18.03 235.10,18.43 235.24,18.91 235.37,19.38 235.36,19.87 235.34,20.36 235.16,20.82 234.99,21.28 234.67,21.66 234.36,22.04 233.94,22.30 233.53,22.56 233.05,22.67 232.57,22.78 232.08,22.74 231.59,22.69 231.14,22.49 230.69,22.29 230.33,21.96 229.97,21.63 229.73,21.20 229.49,20.77 229.41,20.28 229.32,19.80 229.39,19.31 229.46,18.82 229.69,18.39 229.91,17.95 230.26,17.61 230.62,17.26 231.06,17.05 231.50,16.84 231.99,16.78 232.48,16.71 232.96,16.81 233.44,16.91 233.87,17.16 234.29,17.41 234.62,17.78 234.94,18.15 235.13,18.60 235.32,19.05 235.35,19.55 235.38,20.04 235.26,20.51 235.14,20.99 234.87,21.40 234.60,21.81 234.21,22.11 233.82,22.42 233.36,22.58 232.89,22.74 232.40,22.75 231.91,22.76 231.91,22.76 231.91,22.76 228.36,22.02 224.80,21.28 219.99,21.05 215.18,20.81 208.01,20.27 200.85,19.72 191.39,19.11 181.93,18.49 170.48,17.71 159.03,16.93 146.35,15.78 133.66,14.63 120.79,13.26 107.92,11.90 95.22,10.71 82.52,9.52 70.85,8.72 59.17,7.93 49.22,7.40 39.27,6.86 30.73,6.26 22.18,5.65 15.80,4.88 9.42,4.11 4.53,3.61 -0.36,3.10 -0.73,3.01 -1.09,2.92 -1.43,2.75 -1.76,2.57 -2.04,2.32 -2.33,2.08 -2.54,1.77 -2.76,1.46 -2.89,1.11 -3.03,0.75 -3.07,0.38 -3.12,0.01 -3.08,-0.36 -3.03,-0.73 -2.90,-1.08 -2.77,-1.44 -2.55,-1.75 -2.34,-2.06 -2.06,-2.31 -1.78,-2.56 -1.45,-2.74 -1.11,-2.91 -0.75,-3.00 -0.38,-3.10 -0.01,-3.10 0.36,-3.10 0.36,-3.10 L 0.36,-3.10 Z"></path></g><g transform="translate(418 1146) rotate(0 130.5 5.5)" stroke="none"><path fill="#1e1e1e" d="M 0.12,-3.12 Q 0.12,-3.12 7.59,-2.76 15.06,-2.41 24.57,-1.95 34.07,-1.49 45.83,-1.28 57.59,-1.07 71.48,-1.26 85.36,-1.44 101.67,-1.23 117.98,-1.01 135.01,-0.05 152.05,0.90 167.92,2.18 183.79,3.45 197.74,4.86 211.68,6.27 223.00,6.87 234.31,7.46 241.43,7.72 248.54,7.98 252.14,7.95 255.75,7.93 257.29,7.75 258.83,7.58 259.36,7.68 259.89,7.78 260.36,8.05 260.84,8.32 261.20,8.72 261.56,9.13 261.77,9.63 261.98,10.13 262.03,10.67 262.07,11.21 261.94,11.73 261.81,12.26 261.51,12.72 261.22,13.17 260.79,13.51 260.37,13.85 259.86,14.04 259.35,14.22 258.81,14.24 258.27,14.25 257.75,14.09 257.23,13.93 256.79,13.61 256.35,13.29 256.04,12.85 255.72,12.41 255.56,11.89 255.40,11.37 255.42,10.83 255.44,10.29 255.63,9.78 255.81,9.27 256.16,8.85 256.50,8.42 256.95,8.13 257.41,7.84 257.94,7.71 258.47,7.58 259.01,7.63 259.55,7.68 260.04,7.89 260.54,8.11 260.95,8.47 261.35,8.83 261.61,9.31 261.88,9.78 261.98,10.31 262.08,10.85 262.01,11.38 261.93,11.92 261.69,12.41 261.45,12.89 261.06,13.27 260.68,13.66 260.19,13.90 259.70,14.14 259.17,14.21 258.63,14.28 258.63,14.28 258.63,14.28 257.10,14.01 255.58,13.74 251.96,13.50 248.35,13.27 241.19,13.02 234.04,12.77 222.59,12.17 211.15,11.58 197.26,10.19 183.37,8.80 167.56,7.54 151.75,6.29 134.83,5.36 117.91,4.43 101.68,4.25 85.45,4.08 71.48,4.32 57.51,4.55 45.67,4.42 33.82,4.28 24.33,3.92 14.83,3.56 7.35,3.34 -0.12,3.12 -0.49,3.06 -0.86,3.00 -1.21,2.85 -1.55,2.70 -1.85,2.48 -2.16,2.25 -2.39,1.96 -2.63,1.67 -2.79,1.33 -2.96,0.99 -3.03,0.62 -3.11,0.25 -3.09,-0.11 -3.08,-0.49 -2.98,-0.85 -2.87,-1.21 -2.68,-1.54 -2.50,-1.87 -2.24,-2.14 -1.98,-2.41 -1.66,-2.61 -1.34,-2.82 -0.98,-2.94 -0.63,-3.06 -0.25,-3.09 0.12,-3.12 0.12,-3.12 L 0.12,-3.12 Z"></path></g><g transform="translate(685 1156) rotate(0 -5 -101.5)" stroke="none"><path fill="#1e1e1e" d="M -3.08,0.53 Q -3.08,0.53 -4.16,-6.08 -5.25,-12.71 -6.55,-21.30 -7.86,-29.89 -8.98,-39.33 -10.10,-48.77 -10.57,-58.33 -11.04,-67.88 -11.23,-76.82 -11.42,-85.77 -11.49,-94.46 -11.57,-103.15 -11.59,-110.87 -11.62,-118.58 -11.63,-124.45 -11.64,-130.32 -11.65,-134.54 -11.66,-138.76 -11.91,-141.12 -12.17,-143.49 -12.52,-145.91 -12.87,-148.33 -13.73,-151.04 -14.58,-153.75 -14.89,-156.28 -15.20,-158.82 -15.42,-161.68 -15.64,-164.54 -15.45,-167.60 -15.25,-170.67 -15.19,-173.64 -15.13,-176.61 -14.69,-179.87 -14.25,-183.13 -13.79,-185.76 -13.32,-188.38 -13.16,-190.57 -13.00,-192.75 -13.01,-195.38 -13.01,-198.01 -13.12,-200.11 -13.22,-202.20 -13.12,-202.95 -13.02,-203.69 -12.75,-204.39 -12.48,-205.09 -12.05,-205.70 -11.62,-206.31 -11.05,-206.81 -10.49,-207.30 -9.82,-207.64 -9.15,-207.98 -8.42,-208.16 -7.69,-208.33 -6.95,-208.32 -6.20,-208.32 -5.47,-208.13 -4.74,-207.95 -4.08,-207.59 -3.42,-207.24 -2.86,-206.74 -2.31,-206.23 -1.89,-205.61 -1.47,-204.99 -1.21,-204.29 -0.95,-203.59 -0.86,-202.84 -0.78,-202.10 -0.57,-198.75 -0.35,-195.41 -0.63,-188.00 -0.91,-180.59 -0.91,-174.20 -0.91,-167.80 -1.31,-156.28 -1.71,-144.76 -2.25,-136.71 -2.79,-128.66 -3.66,-115.75 -4.53,-102.85 -5.23,-94.48 -5.93,-86.11 -6.26,-76.89 -6.58,-67.66 -6.75,-62.85 -6.91,-58.05 -6.73,-55.71 -6.54,-53.38 -5.96,-50.61 -5.37,-47.84 -4.05,-44.21 -2.73,-40.58 -2.67,-39.85 -2.61,-39.12 -2.79,-38.41 -2.97,-37.70 -3.36,-37.08 -3.76,-36.47 -4.33,-36.01 -4.90,-35.55 -5.59,-35.30 -6.27,-35.05 -7.01,-35.03 -7.74,-35.02 -8.43,-35.23 -9.13,-35.45 -9.73,-35.87 -10.32,-36.30 -10.75,-36.90 -11.17,-37.49 -11.38,-38.19 -11.60,-38.89 -11.58,-39.62 -11.56,-40.35 -11.30,-41.04 -11.05,-41.72 -10.59,-42.29 -10.13,-42.86 -9.51,-43.26 -8.90,-43.65 -8.19,-43.82 -7.48,-44.00 -6.75,-43.94 -6.02,-43.88 -5.35,-43.59 -4.68,-43.30 -4.13,-42.81 -3.59,-42.32 -3.23,-41.68 -2.87,-41.04 -2.74,-40.32 -2.60,-39.61 -2.70,-38.88 -2.80,-38.16 -3.13,-37.50 -3.45,-36.85 -3.97,-36.33 -4.49,-35.82 -5.14,-35.49 -5.80,-35.17 -6.52,-35.07 -7.25,-34.97 -7.97,-35.11 -8.69,-35.25 -9.32,-35.61 -9.96,-35.98 -10.44,-36.52 -10.93,-37.07 -11.22,-37.74 -11.51,-38.41 -11.51,-38.41 -11.51,-38.41 -12.47,-42.30 -13.44,-46.18 -13.38,-49.85 -13.31,-53.51 -13.04,-55.84 -12.76,-58.18 -12.71,-63.00 -12.66,-67.82 -12.48,-77.20 -12.30,-86.57 -11.81,-94.90 -11.32,-103.23 -10.74,-116.11 -10.17,-128.98 -10.01,-136.92 -9.86,-144.86 -9.97,-156.09 -10.08,-167.32 -10.76,-173.87 -11.44,-180.41 -11.96,-187.22 -12.49,-194.03 -12.85,-198.12 -13.22,-202.20 -13.12,-202.95 -13.02,-203.69 -12.75,-204.39 -12.48,-205.09 -12.05,-205.70 -11.62,-206.31 -11.05,-206.81 -10.49,-207.30 -9.82,-207.64 -9.15,-207.98 -8.42,-208.16 -7.70,-208.33 -6.95,-208.32 -6.20,-208.32 -5.47,-208.13 -4.74,-207.95 -4.08,-207.59 -3.42,-207.24 -2.87,-206.74 -2.31,-206.23 -1.89,-205.61 -1.47,-204.99 -1.21,-204.29 -0.95,-203.59 -0.86,-202.84 -0.78,-202.10 -0.93,-199.92 -1.07,-197.75 -1.29,-194.84 -1.51,-191.94 -1.70,-189.19 -1.89,-186.44 -2.25,-184.21 -2.61,-181.98 -2.77,-179.24 -2.93,-176.49 -2.93,-173.98 -2.93,-171.47 -3.64,-168.00 -4.35,-164.54 -4.56,-161.69 -4.78,-158.84 -5.14,-156.17 -5.49,-153.49 -5.31,-150.91 -5.12,-148.33 -5.47,-145.92 -5.82,-143.50 -6.07,-141.13 -6.31,-138.76 -6.31,-134.55 -6.31,-130.33 -6.28,-124.47 -6.26,-118.61 -6.21,-110.91 -6.16,-103.20 -6.06,-94.55 -5.96,-85.89 -5.73,-77.03 -5.51,-68.16 -5.00,-58.81 -4.50,-49.46 -3.32,-40.13 -2.14,-30.79 -0.74,-22.26 0.65,-13.73 1.86,-7.13 3.08,-0.53 3.10,-0.15 3.12,0.21 3.05,0.58 2.98,0.95 2.82,1.30 2.66,1.64 2.43,1.94 2.19,2.23 1.89,2.46 1.59,2.69 1.25,2.84 0.90,2.99 0.53,3.06 0.16,3.12 -0.21,3.10 -0.59,3.07 -0.95,2.96 -1.31,2.84 -1.63,2.64 -1.95,2.44 -2.21,2.17 -2.48,1.90 -2.67,1.58 -2.86,1.25 -2.97,0.89 -3.08,0.53 -3.08,0.53 L -3.08,0.53 Z"></path></g><g transform="translate(425 1151) rotate(0 -5 -54.5)" stroke="none"><path fill="#1e1e1e" d="M -3.12,1.04 Q -3.12,1.04 -4.47,-3.30 -5.82,-7.64 -7.01,-11.52 -8.20,-15.40 -8.97,-20.41 -9.75,-25.42 -10.34,-31.58 -10.93,-37.74 -11.17,-45.30 -11.41,-52.86 -11.78,-60.90 -12.16,-68.94 -12.31,-76.43 -12.46,-83.92 -12.52,-89.69 -12.58,-95.46 -12.74,-99.06 -12.90,-102.65 -13.06,-105.24 -13.23,-107.83 -13.14,-108.35 -13.06,-108.87 -12.82,-109.33 -12.58,-109.80 -12.20,-110.16 -11.82,-110.52 -11.35,-110.75 -10.88,-110.97 -10.36,-111.03 -9.83,-111.09 -9.32,-110.98 -8.81,-110.87 -8.36,-110.60 -7.91,-110.34 -7.57,-109.94 -7.22,-109.54 -7.03,-109.06 -6.83,-108.57 -6.80,-108.05 -6.76,-107.53 -6.90,-107.02 -7.04,-106.52 -7.33,-106.08 -7.62,-105.64 -8.03,-105.32 -8.45,-105.00 -8.95,-104.83 -9.44,-104.66 -9.96,-104.66 -10.49,-104.65 -10.99,-104.82 -11.48,-104.98 -11.90,-105.30 -12.32,-105.61 -12.62,-106.04 -12.92,-106.47 -13.06,-106.98 -13.20,-107.48 -13.18,-108.01 -13.15,-108.53 -12.96,-109.02 -12.77,-109.50 -12.44,-109.91 -12.10,-110.31 -11.65,-110.58 -11.21,-110.85 -10.70,-110.97 -10.18,-111.09 -9.66,-111.03 -9.14,-110.98 -8.67,-110.76 -8.19,-110.55 -7.81,-110.19 -7.42,-109.83 -7.17,-109.37 -6.93,-108.91 -6.84,-108.39 -6.75,-107.88 -6.75,-107.88 -6.75,-107.88 -6.87,-105.29 -7.00,-102.71 -7.10,-99.11 -7.19,-95.52 -7.11,-89.78 -7.02,-84.04 -6.84,-76.63 -6.65,-69.22 -6.23,-61.14 -5.80,-53.06 -5.51,-45.69 -5.22,-38.32 -4.56,-32.36 -3.90,-26.39 -3.09,-21.80 -2.29,-17.22 -1.10,-13.41 0.07,-9.60 1.59,-5.32 3.12,-1.04 3.20,-0.65 3.28,-0.26 3.26,0.13 3.24,0.52 3.13,0.91 3.02,1.29 2.82,1.63 2.63,1.97 2.35,2.26 2.08,2.55 1.74,2.76 1.40,2.97 1.03,3.10 0.65,3.22 0.26,3.25 -0.13,3.28 -0.52,3.22 -0.91,3.16 -1.28,3.00 -1.64,2.85 -1.96,2.61 -2.28,2.37 -2.53,2.06 -2.78,1.75 -2.95,1.39 -3.12,1.04 -3.12,1.04 L -3.12,1.04 Z"></path></g><g transform="translate(10 1046) rotate(0 379 -152.5)" stroke="none"><path fill="#1e1e1e" d="M 0.49,-4.48 Q 0.49,-4.48 3.09,-4.26 5.68,-4.05 8.08,-4.00 10.48,-3.96 13.45,-3.62 16.43,-3.29 19.41,-2.85 22.39,-2.41 25.38,-1.92 28.37,-1.44 31.40,-1.21 34.44,-0.98 37.76,-0.84 41.08,-0.69 44.42,-0.34 47.77,0.00 50.99,0.17 54.21,0.34 57.60,0.44 60.98,0.54 63.87,0.52 66.75,0.49 69.91,0.77 73.08,1.05 76.21,1.19 79.34,1.33 82.97,1.48 86.60,1.64 90.74,1.85 94.87,2.07 99.51,2.25 104.14,2.43 109.27,2.56 114.41,2.69 119.75,2.78 125.09,2.87 130.82,2.94 136.54,3.01 142.13,3.06 147.73,3.11 153.55,3.14 159.38,3.18 165.24,2.92 171.10,2.66 177.11,2.55 183.12,2.45 189.41,2.41 195.70,2.37 202.11,2.36 208.52,2.35 215.27,2.35 222.02,2.34 228.62,2.35 235.23,2.35 241.49,2.35 247.74,2.35 253.85,2.35 259.96,2.35 266.30,2.36 272.63,2.36 278.71,2.07 284.79,1.79 291.12,1.38 297.44,0.97 303.52,0.23 309.59,-0.50 315.68,-1.11 321.77,-1.72 327.58,-1.98 333.39,-2.24 338.96,-2.64 344.53,-3.03 350.06,-3.48 355.58,-3.94 361.03,-4.70 366.47,-5.46 371.58,-6.63 376.69,-7.80 381.12,-9.14 385.55,-10.49 389.81,-11.65 394.06,-12.82 398.17,-13.89 402.28,-14.97 406.32,-16.02 410.36,-17.07 414.61,-18.34 418.86,-19.62 422.87,-21.28 426.88,-22.93 431.20,-24.79 435.53,-26.65 439.89,-28.85 444.25,-31.05 448.96,-33.69 453.67,-36.34 458.28,-38.91 462.90,-41.49 467.50,-43.76 472.11,-46.04 476.97,-48.17 481.83,-50.29 486.08,-52.58 490.33,-54.86 494.38,-57.52 498.43,-60.18 502.77,-63.05 507.11,-65.93 511.82,-69.15 516.53,-72.38 521.72,-75.78 526.91,-79.18 532.55,-82.92 538.20,-86.66 543.54,-89.73 548.89,-92.80 553.41,-95.51 557.93,-98.22 562.15,-100.81 566.37,-103.40 570.36,-106.44 574.35,-109.48 578.63,-113.07 582.91,-116.65 587.60,-120.76 592.29,-124.87 597.20,-128.95 602.10,-133.02 605.95,-135.93 609.80,-138.84 612.78,-141.27 615.77,-143.70 618.11,-145.73 620.45,-147.75 622.05,-149.68 623.65,-151.60 626.22,-153.99 628.80,-156.38 631.56,-159.18 634.33,-161.98 637.40,-164.54 640.47,-167.10 642.74,-169.29 645.00,-171.48 646.86,-173.19 648.73,-174.89 650.62,-176.52 652.52,-178.15 654.31,-179.89 656.10,-181.64 659.01,-184.24 661.92,-186.84 664.57,-189.58 667.22,-192.32 669.84,-195.00 672.46,-197.69 675.14,-199.90 677.82,-202.12 679.73,-203.70 681.64,-205.28 684.41,-208.38 687.18,-211.47 688.92,-213.62 690.67,-215.77 692.13,-218.15 693.59,-220.53 695.24,-222.77 696.90,-225.02 699.54,-228.20 702.19,-231.38 703.94,-233.21 705.69,-235.04 707.27,-236.69 708.84,-238.34 710.82,-241.49 712.79,-244.65 714.82,-247.47 716.84,-250.29 718.51,-252.39 720.17,-254.48 722.75,-258.04 725.33,-261.61 727.16,-264.31 728.99,-267.01 729.84,-269.04 730.70,-271.06 732.47,-273.90 734.25,-276.73 735.70,-279.65 737.15,-282.58 738.29,-285.29 739.44,-288.00 740.39,-290.45 741.33,-292.91 742.34,-295.13 743.35,-297.36 744.44,-299.74 745.53,-302.13 747.45,-305.80 749.38,-309.47 750.51,-311.55 751.63,-313.64 752.31,-314.51 752.99,-315.39 753.91,-316.00 754.84,-316.61 755.91,-316.90 756.98,-317.19 758.09,-317.11 759.20,-317.04 760.22,-316.62 761.25,-316.20 762.09,-315.47 762.92,-314.75 763.49,-313.79 764.05,-312.83 764.27,-311.75 764.50,-310.66 764.37,-309.56 764.24,-308.46 763.76,-307.46 763.28,-306.45 762.51,-305.66 761.74,-304.86 760.76,-304.35 759.77,-303.84 758.67,-303.67 757.58,-303.51 756.48,-303.70 755.39,-303.89 754.42,-304.42 753.44,-304.95 752.69,-305.76 751.93,-306.57 751.48,-307.59 751.02,-308.60 750.92,-309.70 750.81,-310.81 751.06,-311.89 751.31,-312.97 751.89,-313.91 752.47,-314.86 753.33,-315.57 754.18,-316.27 755.21,-316.67 756.25,-317.07 757.36,-317.12 758.47,-317.17 759.53,-316.86 760.60,-316.55 761.51,-315.92 762.42,-315.29 763.08,-314.40 763.74,-313.51 764.09,-312.45 764.43,-311.40 764.42,-310.29 764.40,-309.18 764.04,-308.13 763.67,-307.08 763.67,-307.09 763.67,-307.09 762.80,-305.53 761.93,-303.97 759.97,-300.93 758.01,-297.88 756.59,-294.74 755.16,-291.60 754.16,-289.64 753.16,-287.69 752.06,-285.15 750.96,-282.61 749.87,-280.34 748.78,-278.08 746.89,-274.30 745.01,-270.52 742.67,-266.89 740.33,-263.26 739.26,-261.41 738.20,-259.55 736.37,-257.18 734.54,-254.81 733.16,-252.95 731.79,-251.09 730.46,-249.29 729.14,-247.50 726.47,-244.02 723.80,-240.54 721.70,-237.88 719.60,-235.23 718.00,-233.05 716.41,-230.88 714.78,-229.29 713.15,-227.71 711.43,-225.99 709.70,-224.27 707.09,-221.68 704.48,-219.08 703.02,-217.35 701.56,-215.61 699.75,-212.68 697.94,-209.74 696.04,-207.51 694.14,-205.27 692.29,-203.37 690.44,-201.46 688.53,-199.98 686.63,-198.50 684.66,-197.23 682.70,-195.96 680.32,-194.18 677.95,-192.41 675.44,-189.75 672.94,-187.09 670.29,-184.02 667.64,-180.96 664.84,-178.01 662.04,-175.07 659.88,-173.24 657.71,-171.41 655.71,-170.03 653.71,-168.66 651.82,-167.37 649.93,-166.07 647.41,-163.91 644.90,-161.76 642.14,-159.48 639.38,-157.21 636.54,-154.06 633.70,-150.91 631.21,-148.78 628.72,-146.64 626.51,-144.67 624.31,-142.71 621.76,-140.99 619.20,-139.28 616.08,-136.97 612.96,-134.65 609.21,-131.82 605.46,-128.98 600.61,-124.95 595.76,-120.92 591.02,-116.77 586.28,-112.62 581.90,-108.96 577.53,-105.30 573.32,-102.11 569.12,-98.92 564.87,-96.32 560.63,-93.72 556.07,-90.98 551.50,-88.24 546.30,-85.26 541.10,-82.28 535.44,-78.53 529.79,-74.79 524.64,-71.42 519.50,-68.04 514.76,-64.80 510.02,-61.55 505.66,-58.66 501.31,-55.78 497.06,-53.01 492.82,-50.23 488.38,-47.85 483.94,-45.48 479.19,-43.40 474.44,-41.32 469.95,-39.10 465.46,-36.89 460.86,-34.32 456.25,-31.74 451.44,-29.04 446.63,-26.34 442.13,-24.07 437.62,-21.80 433.26,-19.91 428.90,-18.03 424.65,-16.28 420.40,-14.53 416.04,-13.21 411.68,-11.88 407.65,-10.88 403.61,-9.87 399.53,-8.81 395.45,-7.75 391.26,-6.61 387.08,-5.46 382.47,-4.07 377.86,-2.68 372.53,-1.47 367.20,-0.26 361.61,0.51 356.02,1.29 350.46,1.75 344.90,2.20 339.26,2.60 333.63,3.00 327.96,3.25 322.29,3.51 316.26,4.11 310.23,4.71 304.00,5.47 297.78,6.23 291.41,6.64 285.04,7.05 278.84,7.34 272.63,7.63 266.30,7.63 259.96,7.64 253.86,7.64 247.75,7.64 241.49,7.65 235.23,7.66 228.63,7.66 222.03,7.67 215.28,7.69 208.54,7.71 202.14,7.74 195.74,7.77 189.48,7.84 183.23,7.90 177.30,8.04 171.37,8.18 165.37,8.50 159.38,8.81 153.55,8.85 147.73,8.88 142.13,8.93 136.54,8.98 130.81,9.04 125.09,9.11 119.75,9.20 114.40,9.29 109.26,9.41 104.13,9.53 99.48,9.69 94.83,9.85 90.65,10.02 86.48,10.19 82.73,10.24 78.99,10.28 75.58,10.17 72.17,10.06 69.42,9.74 66.67,9.42 63.75,9.35 60.83,9.27 57.34,9.26 53.85,9.25 50.35,9.14 46.85,9.04 43.85,8.74 40.85,8.44 37.36,8.41 33.87,8.39 30.37,8.22 26.86,8.05 23.92,7.59 20.98,7.13 18.12,6.71 15.27,6.29 12.64,5.94 10.01,5.60 7.33,5.40 4.66,5.20 2.08,4.84 -0.49,4.48 -1.02,4.35 -1.55,4.23 -2.04,3.98 -2.52,3.73 -2.93,3.38 -3.34,3.02 -3.65,2.58 -3.97,2.13 -4.17,1.63 -4.36,1.12 -4.43,0.58 -4.51,0.04 -4.45,-0.49 -4.39,-1.03 -4.20,-1.54 -4.01,-2.05 -3.71,-2.50 -3.40,-2.95 -3.00,-3.32 -2.59,-3.68 -2.12,-3.94 -1.64,-4.20 -1.11,-4.33 -0.58,-4.47 -0.04,-4.47 0.49,-4.48 0.49,-4.48 L 0.49,-4.48 Z"></path></g><g transform="translate(73 1136) rotate(0 3 -41)" stroke="none"><path fill="#1e1e1e" d="M -4.15,0 Q -4.15,0 -4.08,-3.73 -4.00,-7.47 -3.23,-12.17 -2.45,-16.86 -1.79,-22.14 -1.13,-27.42 -0.51,-32.01 0.09,-36.59 0.61,-40.57 1.13,-44.55 1.54,-48.00 1.94,-51.45 1.97,-53.95 1.99,-56.46 1.80,-59.47 1.61,-62.48 1.31,-65.50 1.00,-68.52 0.77,-71.23 0.53,-73.94 0.35,-77.77 0.16,-81.59 0.31,-82.52 0.46,-83.45 0.91,-84.29 1.35,-85.12 2.03,-85.77 2.72,-86.42 3.58,-86.82 4.43,-87.21 5.37,-87.31 6.31,-87.42 7.23,-87.21 8.16,-87.01 8.96,-86.52 9.77,-86.04 10.38,-85.32 11.00,-84.60 11.35,-83.72 11.70,-82.84 11.75,-81.90 11.80,-80.96 11.54,-80.05 11.29,-79.14 10.76,-78.36 10.23,-77.57 9.48,-77.00 8.73,-76.43 7.83,-76.13 6.94,-75.83 5.99,-75.83 5.05,-75.83 4.16,-76.13 3.26,-76.43 2.51,-77.00 1.76,-77.58 1.23,-78.36 0.70,-79.14 0.45,-80.05 0.19,-80.96 0.24,-81.90 0.30,-82.84 0.65,-83.72 0.99,-84.60 1.61,-85.32 2.22,-86.04 3.03,-86.52 3.84,-87.01 4.76,-87.21 5.68,-87.42 6.62,-87.31 7.56,-87.21 8.41,-86.81 9.27,-86.42 9.96,-85.77 10.64,-85.12 11.08,-84.28 11.53,-83.45 11.68,-82.52 11.83,-81.59 11.83,-81.59 11.83,-81.59 11.76,-79.18 11.68,-76.77 11.50,-74.64 11.33,-72.51 11.05,-69.48 10.77,-66.45 10.52,-64.32 10.27,-62.19 9.82,-59.02 9.37,-55.85 8.97,-53.16 8.56,-50.47 7.96,-47.11 7.37,-43.75 6.87,-39.82 6.38,-35.88 5.97,-31.32 5.56,-26.76 5.15,-21.35 4.75,-15.93 4.38,-11.70 4.00,-7.47 4.08,-3.73 4.15,0 4.09,0.49 4.03,0.99 3.85,1.46 3.67,1.93 3.39,2.34 3.10,2.75 2.73,3.08 2.36,3.41 1.91,3.65 1.47,3.88 0.98,4.00 0.50,4.12 -0.00,4.12 -0.50,4.12 -0.98,4.00 -1.47,3.88 -1.91,3.65 -2.36,3.41 -2.73,3.08 -3.11,2.75 -3.39,2.34 -3.67,1.93 -3.85,1.46 -4.03,0.99 -4.09,0.49 -4.15,-0.00 -4.15,-0.00 L -4.15,0 Z"></path></g><g transform="translate(305 1053) rotate(0 5 43.5)" stroke="none"><path fill="#1e1e1e" d="M 4.66,-2.07 Q 4.66,-2.07 5.80,0.52 6.95,3.11 7.83,6.30 8.71,9.49 9.15,12.15 9.60,14.81 9.79,17.45 9.99,20.09 10.11,22.36 10.22,24.62 10.71,29.35 11.19,34.09 11.64,37.29 12.08,40.49 12.43,43.69 12.78,46.89 12.96,49.73 13.14,52.57 13.62,54.88 14.09,57.20 14.21,60.55 14.33,63.90 15.30,66.75 16.27,69.59 16.52,72.31 16.77,75.03 16.85,78.25 16.94,81.47 16.47,84.33 16.00,87.19 15.68,88.28 15.37,89.36 14.73,90.29 14.08,91.22 13.17,91.89 12.27,92.56 11.19,92.91 10.12,93.26 8.99,93.24 7.86,93.23 6.80,92.86 5.73,92.48 4.84,91.79 3.95,91.10 3.33,90.16 2.70,89.21 2.42,88.12 2.13,87.03 2.20,85.90 2.27,84.78 2.71,83.73 3.14,82.69 3.88,81.84 4.62,80.99 5.59,80.42 6.57,79.85 7.67,79.62 8.78,79.39 9.90,79.52 11.02,79.66 12.04,80.14 13.06,80.63 13.87,81.42 14.68,82.20 15.19,83.20 15.71,84.21 15.88,85.32 16.05,86.44 15.85,87.55 15.66,88.66 15.12,89.66 14.58,90.65 13.75,91.41 12.92,92.18 11.89,92.64 10.86,93.10 9.74,93.21 8.61,93.32 7.51,93.07 6.41,92.81 5.45,92.22 4.49,91.62 3.77,90.75 3.05,89.88 2.64,88.83 2.24,87.78 2.19,86.65 2.14,85.52 2.14,85.52 2.14,85.52 2.61,82.39 3.07,79.26 3.14,76.78 3.21,74.31 2.92,71.98 2.62,69.65 2.11,66.88 1.59,64.11 1.56,61.15 1.54,58.19 1.19,55.48 0.84,52.77 0.94,50.10 1.04,47.42 1.02,44.99 0.99,42.56 0.70,38.62 0.41,34.68 0.31,32.44 0.21,30.20 -0.09,25.45 -0.40,20.69 -0.70,16.42 -1.00,12.15 -1.68,9.69 -2.35,7.23 -3.50,4.65 -4.66,2.07 -4.84,1.48 -5.02,0.89 -5.06,0.28 -5.09,-0.33 -4.98,-0.93 -4.86,-1.54 -4.61,-2.10 -4.35,-2.66 -3.97,-3.14 -3.59,-3.62 -3.10,-4.00 -2.62,-4.38 -2.05,-4.63 -1.49,-4.88 -0.88,-4.98 -0.28,-5.09 0.33,-5.05 0.94,-5.01 1.53,-4.83 2.11,-4.64 2.64,-4.32 3.16,-4.00 3.60,-3.56 4.03,-3.12 4.34,-2.60 4.66,-2.07 4.66,-2.07 L 4.66,-2.07 Z"></path></g><g transform="translate(677 956) rotate(0 -2.5 -40)" stroke="none"><path fill="#1e1e1e" d="M -4.17,0.27 Q -4.17,0.27 -4.25,-4.04 -4.33,-8.37 -4.58,-13.35 -4.84,-18.33 -5.47,-23.83 -6.09,-29.33 -6.62,-34.31 -7.15,-39.30 -7.45,-43.21 -7.75,-47.12 -8.01,-50.23 -8.28,-53.34 -8.51,-55.82 -8.73,-58.30 -9.06,-61.32 -9.39,-64.34 -9.07,-66.72 -8.74,-69.10 -9.09,-71.82 -9.44,-74.54 -9.53,-77.01 -9.61,-79.48 -9.47,-80.38 -9.32,-81.27 -8.89,-82.08 -8.47,-82.88 -7.81,-83.50 -7.14,-84.13 -6.32,-84.51 -5.49,-84.89 -4.59,-84.99 -3.69,-85.09 -2.80,-84.89 -1.91,-84.69 -1.13,-84.22 -0.35,-83.75 0.22,-83.06 0.81,-82.37 1.15,-81.52 1.48,-80.68 1.53,-79.77 1.58,-78.86 1.34,-77.99 1.09,-77.11 0.58,-76.36 0.07,-75.61 -0.64,-75.06 -1.37,-74.51 -2.23,-74.22 -3.09,-73.93 -4.00,-73.93 -4.91,-73.93 -5.77,-74.22 -6.63,-74.51 -7.36,-75.06 -8.08,-75.62 -8.59,-76.37 -9.10,-77.12 -9.34,-78.00 -9.58,-78.87 -9.53,-79.78 -9.48,-80.69 -9.14,-81.53 -8.81,-82.38 -8.22,-83.07 -7.63,-83.76 -6.85,-84.23 -6.07,-84.70 -5.18,-84.89 -4.29,-85.09 -3.39,-84.99 -2.49,-84.89 -1.66,-84.51 -0.84,-84.12 -0.18,-83.50 0.47,-82.87 0.90,-82.07 1.32,-81.26 1.47,-80.37 1.61,-79.47 1.61,-79.47 1.61,-79.47 1.51,-76.96 1.41,-74.44 1.21,-72.29 1.01,-70.14 0.22,-67.27 -0.57,-64.41 -0.85,-61.42 -1.12,-58.44 -1.25,-56.01 -1.39,-53.59 -1.43,-50.56 -1.48,-47.54 -1.27,-43.79 -1.05,-40.04 -0.37,-35.11 0.31,-30.19 1.18,-24.54 2.05,-18.89 2.62,-13.88 3.18,-8.87 3.67,-4.57 4.17,-0.27 4.14,0.22 4.11,0.72 3.97,1.21 3.82,1.69 3.56,2.12 3.30,2.55 2.95,2.91 2.59,3.27 2.16,3.53 1.73,3.80 1.25,3.95 0.77,4.10 0.27,4.14 -0.22,4.17 -0.72,4.08 -1.21,4.00 -1.68,3.79 -2.14,3.59 -2.54,3.28 -2.93,2.97 -3.25,2.58 -3.56,2.18 -3.77,1.72 -3.98,1.26 -4.07,0.77 -4.17,0.27 -4.17,0.27 L -4.17,0.27 Z"></path></g><g transform="translate(304 1049) rotate(0 55.5 -28)" stroke="none"><path fill="#1e1e1e" d="M -4.73,0.72 Q -4.73,0.72 -5.15,-3.03 -5.57,-6.79 -5.81,-10.28 -6.04,-13.77 -6.20,-16.70 -6.36,-19.62 -6.44,-22.61 -6.52,-25.59 -6.55,-28.58 -6.59,-31.57 -6.61,-34.57 -6.63,-37.57 -6.71,-39.99 -6.80,-42.42 -6.57,-44.92 -6.35,-47.42 -6.34,-51.15 -6.34,-54.87 -6.35,-57.20 -6.36,-59.54 -6.40,-61.68 -6.43,-63.83 -6.15,-67.08 -5.86,-70.33 -5.02,-73.19 -4.18,-76.05 0.55,-78.17 5.29,-80.29 9.73,-80.36 14.17,-80.44 19.90,-80.32 25.64,-80.21 32.08,-80.04 38.51,-79.88 45.55,-79.73 52.59,-79.58 59.68,-79.17 66.76,-78.76 72.87,-78.55 78.98,-78.33 83.58,-78.21 88.19,-78.09 91.30,-78.23 94.41,-78.37 98.02,-77.85 101.63,-77.33 103.62,-76.38 105.62,-75.42 107.72,-73.83 109.83,-72.24 111.20,-70.30 112.57,-68.36 113.47,-65.87 114.38,-63.37 114.96,-60.61 115.54,-57.85 115.99,-54.64 116.43,-51.42 116.57,-47.83 116.71,-44.24 116.70,-40.72 116.69,-37.19 116.91,-33.87 117.13,-30.56 117.20,-26.94 117.27,-23.33 117.21,-19.49 117.15,-15.65 117.11,-12.01 117.08,-8.37 117.00,-4.53 116.91,-0.68 116.65,2.84 116.38,6.37 116.39,8.88 116.39,11.39 116.16,13.86 115.92,16.34 115.80,18.05 115.67,19.75 115.47,20.47 115.26,21.18 114.84,21.80 114.42,22.42 113.82,22.86 113.22,23.31 112.51,23.55 111.80,23.78 111.05,23.77 110.31,23.77 109.60,23.53 108.89,23.28 108.30,22.82 107.71,22.37 107.29,21.75 106.88,21.12 106.68,20.40 106.49,19.68 106.53,18.94 106.58,18.19 106.86,17.50 107.14,16.80 107.63,16.24 108.12,15.67 108.76,15.29 109.41,14.91 110.14,14.76 110.87,14.60 111.61,14.69 112.35,14.77 113.03,15.09 113.71,15.41 114.24,15.93 114.78,16.45 115.13,17.11 115.47,17.77 115.59,18.51 115.71,19.25 115.58,19.99 115.45,20.72 115.10,21.38 114.74,22.04 114.20,22.55 113.65,23.06 112.97,23.37 112.29,23.68 111.55,23.75 110.80,23.83 110.07,23.66 109.34,23.49 108.71,23.10 108.07,22.71 107.59,22.14 107.11,21.57 106.84,20.87 106.57,20.17 106.53,19.43 106.50,18.68 106.50,18.68 106.50,18.68 107.22,14.83 107.95,10.99 108.20,8.34 108.45,5.70 108.75,2.51 109.04,-0.66 108.94,-4.49 108.84,-8.32 108.75,-11.92 108.67,-15.52 108.49,-19.24 108.30,-22.97 108.10,-26.33 107.89,-29.69 107.46,-33.31 107.03,-36.93 106.83,-40.25 106.64,-43.58 106.34,-46.64 106.04,-49.70 105.46,-52.66 104.88,-55.62 104.40,-57.92 103.92,-60.22 103.28,-62.73 102.63,-65.23 101.06,-67.11 99.48,-68.99 96.92,-70.34 94.37,-71.69 91.25,-71.87 88.13,-72.05 83.49,-72.03 78.86,-72.00 72.68,-72.02 66.50,-72.03 59.57,-72.17 52.63,-72.30 45.62,-72.08 38.62,-71.86 32.29,-71.53 25.96,-71.21 20.62,-70.70 15.27,-70.19 10.40,-69.58 5.53,-68.96 4.97,-66.37 4.41,-63.78 4.35,-61.61 4.30,-59.44 4.24,-57.03 4.19,-54.62 4.07,-52.31 3.96,-50.00 3.38,-46.21 2.81,-42.42 2.73,-40.00 2.66,-37.59 2.65,-34.61 2.65,-31.63 2.65,-28.68 2.65,-25.73 2.66,-22.84 2.67,-19.95 2.72,-17.19 2.77,-14.42 3.02,-11.29 3.27,-8.15 4.00,-4.44 4.73,-0.72 4.75,-0.15 4.77,0.42 4.65,0.99 4.53,1.55 4.28,2.07 4.02,2.59 3.65,3.04 3.29,3.48 2.82,3.82 2.36,4.17 1.82,4.39 1.29,4.61 0.72,4.70 0.15,4.79 -0.42,4.73 -0.99,4.68 -1.54,4.49 -2.09,4.31 -2.57,3.99 -3.06,3.68 -3.45,3.26 -3.85,2.84 -4.14,2.34 -4.42,1.84 -4.58,1.28 -4.73,0.72 -4.73,0.72 L -4.73,0.72 Z"></path></g><g transform="translate(666 869) rotate(0 -137.5 -14)" stroke="none"><path fill="#1e1e1e" d="M 0.19,3.11 Q 0.19,3.11 -4.40,3.33 -9.01,3.55 -14.40,3.91 -19.79,4.27 -25.89,4.41 -31.99,4.55 -39.18,4.60 -46.38,4.65 -54.08,4.37 -61.78,4.10 -69.37,3.69 -76.96,3.28 -83.87,3.10 -90.78,2.92 -97.51,2.55 -104.25,2.19 -110.21,2.03 -116.18,1.87 -121.95,1.52 -127.71,1.16 -132.97,1.01 -138.23,0.86 -143.26,1.08 -148.30,1.30 -153.31,1.68 -158.32,2.06 -163.40,2.22 -168.48,2.39 -173.52,2.45 -178.55,2.52 -183.86,2.55 -189.16,2.58 -194.29,2.59 -199.41,2.61 -203.61,2.62 -207.80,2.64 -211.59,2.74 -215.39,2.84 -218.72,2.99 -222.06,3.14 -225.09,3.02 -228.12,2.90 -230.89,2.64 -233.66,2.37 -236.07,2.35 -238.48,2.33 -242.31,2.51 -246.14,2.69 -250.10,2.87 -254.06,3.05 -258.67,2.86 -263.28,2.67 -266.51,2.65 -269.74,2.63 -273.49,1.74 -277.23,0.85 -278.64,-0.96 -280.06,-2.77 -280.58,-6.04 -281.11,-9.30 -280.77,-12.35 -280.44,-15.41 -280.69,-17.98 -280.94,-20.56 -281.08,-23.05 -281.21,-25.53 -281.31,-27.26 -281.41,-28.98 -281.29,-30.02 -281.16,-31.05 -280.71,-32.00 -280.26,-32.94 -279.54,-33.69 -278.81,-34.44 -277.88,-34.92 -276.95,-35.40 -275.92,-35.55 -274.89,-35.71 -273.86,-35.53 -272.83,-35.35 -271.91,-34.85 -271.00,-34.35 -270.29,-33.58 -269.58,-32.81 -269.15,-31.86 -268.72,-30.91 -268.62,-29.87 -268.52,-28.83 -268.76,-27.81 -268.99,-26.79 -269.54,-25.91 -270.09,-25.02 -270.90,-24.35 -271.70,-23.68 -272.67,-23.31 -273.65,-22.93 -274.69,-22.89 -275.74,-22.84 -276.74,-23.14 -277.74,-23.43 -278.60,-24.02 -279.46,-24.62 -280.08,-25.46 -280.70,-26.30 -281.02,-27.29 -281.35,-28.28 -281.33,-29.33 -281.32,-30.37 -280.98,-31.36 -280.63,-32.35 -279.99,-33.17 -279.35,-33.99 -278.48,-34.57 -277.60,-35.14 -276.60,-35.41 -275.59,-35.68 -274.54,-35.61 -273.50,-35.54 -272.54,-35.14 -271.57,-34.75 -270.78,-34.06 -269.99,-33.38 -269.47,-32.47 -268.94,-31.57 -268.73,-30.55 -268.51,-29.53 -268.51,-29.53 -268.51,-29.53 -268.37,-26.18 -268.23,-22.83 -268.06,-18.60 -267.90,-14.37 -268.65,-11.42 -269.39,-8.48 -265.67,-8.15 -261.95,-7.81 -257.99,-7.42 -254.03,-7.03 -250.01,-6.81 -245.99,-6.59 -241.96,-6.21 -237.93,-5.82 -235.21,-5.49 -232.49,-5.16 -229.96,-4.61 -227.42,-4.05 -224.74,-3.60 -222.06,-3.15 -218.73,-3.00 -215.39,-2.85 -211.60,-2.75 -207.80,-2.66 -203.62,-2.65 -199.43,-2.64 -194.31,-2.66 -189.19,-2.67 -183.91,-2.70 -178.63,-2.73 -173.64,-2.80 -168.65,-2.87 -163.69,-3.03 -158.72,-3.19 -153.62,-3.57 -148.53,-3.96 -143.30,-4.19 -138.08,-4.41 -132.73,-4.26 -127.38,-4.12 -121.72,-3.77 -116.05,-3.42 -110.00,-3.27 -103.96,-3.13 -97.31,-2.78 -90.65,-2.42 -83.67,-2.26 -76.68,-2.11 -69.14,-1.72 -61.60,-1.34 -54.02,-1.11 -46.43,-0.87 -39.29,-0.97 -32.16,-1.07 -26.19,-1.28 -20.22,-1.48 -14.80,-1.94 -9.38,-2.40 -4.79,-2.76 -0.19,-3.11 0.18,-3.09 0.55,-3.07 0.91,-2.96 1.27,-2.85 1.59,-2.65 1.92,-2.46 2.18,-2.19 2.45,-1.93 2.65,-1.60 2.84,-1.28 2.95,-0.92 3.07,-0.56 3.09,-0.19 3.11,0.18 3.05,0.55 2.98,0.92 2.83,1.26 2.67,1.61 2.44,1.90 2.21,2.20 1.91,2.43 1.62,2.67 1.27,2.82 0.93,2.98 0.56,3.04 0.19,3.11 0.19,3.11 L 0.19,3.11 Z"></path></g><g stroke-linecap="round" transform="translate(298 657) rotate(0 92 92)"><path d="M116.25 23.25 C126.42 35.28, 139.76 49.25, 160.75 69.75 M116.25 23.25 C126.47 34.05, 136.63 45.2, 160.75 69.75 M160.75 69.75 C183.86 94.46, 185.64 91.68, 160.75 116.25 M160.75 69.75 C184.54 92.9, 184.06 94.39, 160.75 116.25 M160.75 116.25 C142.7 130.64, 127.39 150.48, 116.25 160.75 M160.75 116.25 C152.32 126.07, 141.24 134.93, 116.25 160.75 M116.25 160.75 C92.05 183.84, 92.8 182.15, 69.75 160.75 M116.25 160.75 C95.09 184.42, 91.66 182.02, 69.75 160.75 M69.75 160.75 C52.76 143.25, 32.75 126.82, 23.25 116.25 M69.75 160.75 C57.64 149.35, 44.95 137.26, 23.25 116.25 M23.25 116.25 C1.86 93.13, 0.32 94.78, 23.25 69.75 M23.25 116.25 C-0.35 95, -1.84 92.79, 23.25 69.75 M23.25 69.75 C32.41 59.99, 43.41 48.43, 69.75 23.25 M23.25 69.75 C34.85 56.98, 46.93 44.89, 69.75 23.25 M69.75 23.25 C94.77 -0.28, 93.07 1.56, 116.25 23.25 M69.75 23.25 C95.2 0.04, 91.93 1.48, 116.25 23.25" stroke="#1e1e1e" stroke-width="2" fill="none"></path></g><g transform="translate(82 1049) rotate(0 50.5 -161.5)" stroke="none"><path fill="#1e1e1e" d="M -3.24,0 Q -3.24,0 -3.22,-4.02 -3.19,-8.04 -3.11,-14.07 -3.03,-20.09 -2.98,-27.25 -2.92,-34.41 -2.88,-41.19 -2.84,-47.97 -2.81,-53.44 -2.78,-58.91 -2.76,-63.25 -2.74,-67.58 -2.45,-71.82 -2.17,-76.06 -1.78,-80.17 -1.39,-84.27 -0.95,-88.32 -0.51,-92.37 -0.10,-96.12 0.30,-99.88 1.03,-103.61 1.76,-107.35 2.34,-111.10 2.93,-114.85 3.68,-118.11 4.42,-121.38 4.89,-123.63 5.37,-125.89 5.81,-128.85 6.25,-131.81 7.42,-135.11 8.59,-138.42 11.74,-139.40 14.89,-140.39 19.34,-140.33 23.78,-140.28 29.03,-140.11 34.28,-139.93 40.04,-139.48 45.81,-139.03 50.85,-138.49 55.89,-137.95 59.67,-137.78 63.46,-137.61 65.93,-137.73 68.41,-137.84 70.60,-138.08 72.79,-138.32 75.78,-138.57 78.78,-138.82 82.76,-138.99 86.75,-139.16 90.58,-139.29 94.41,-139.43 96.76,-139.61 99.11,-139.78 96.96,-137.34 94.81,-134.89 94.89,-137.55 94.97,-140.20 95.44,-146.12 95.91,-152.04 96.26,-159.50 96.60,-166.96 96.84,-175.59 97.08,-184.23 97.26,-191.92 97.44,-199.62 97.56,-206.05 97.69,-212.49 97.78,-218.38 97.88,-224.28 97.94,-230.23 98.01,-236.19 98.06,-241.31 98.11,-246.43 97.86,-250.81 97.61,-255.20 97.03,-258.13 96.44,-261.06 96.14,-264.49 95.84,-267.92 95.61,-270.81 95.39,-273.69 95.24,-276.65 95.10,-279.61 94.70,-282.09 94.30,-284.56 94.08,-287.56 93.87,-290.56 93.46,-293.03 93.06,-295.50 92.82,-298.22 92.58,-300.94 92.42,-303.24 92.26,-305.55 92.03,-309.05 91.80,-312.54 91.63,-315.23 91.46,-317.91 91.42,-320.21 91.39,-322.50 91.54,-323.39 91.68,-324.29 92.11,-325.09 92.53,-325.89 93.19,-326.52 93.85,-327.14 94.67,-327.52 95.49,-327.90 96.39,-328.00 97.30,-328.10 98.18,-327.91 99.07,-327.71 99.85,-327.24 100.62,-326.78 101.21,-326.08 101.80,-325.39 102.13,-324.55 102.47,-323.71 102.52,-322.80 102.57,-321.90 102.33,-321.02 102.08,-320.15 101.58,-319.40 101.07,-318.65 100.34,-318.10 99.62,-317.55 98.76,-317.26 97.90,-316.97 97.00,-316.97 96.09,-316.97 95.23,-317.26 94.37,-317.55 93.65,-318.10 92.93,-318.65 92.42,-319.40 91.91,-320.15 91.67,-321.02 91.42,-321.89 91.47,-322.80 91.52,-323.71 91.86,-324.55 92.19,-325.39 92.78,-326.08 93.36,-326.77 94.14,-327.24 94.92,-327.71 95.80,-327.90 96.69,-328.10 97.59,-328.00 98.49,-327.90 99.32,-327.52 100.14,-327.14 100.80,-326.52 101.46,-325.90 101.88,-325.09 102.31,-324.29 102.45,-323.40 102.60,-322.50 102.60,-322.50 102.60,-322.50 102.57,-320.22 102.54,-317.93 102.38,-315.27 102.23,-312.62 102.07,-309.22 101.91,-305.82 101.87,-303.64 101.84,-301.46 101.89,-299.05 101.94,-296.64 102.22,-293.80 102.50,-290.95 102.54,-288.22 102.58,-285.49 102.78,-282.60 102.98,-279.70 102.90,-276.79 102.82,-273.89 102.74,-271.08 102.67,-268.28 102.71,-265.09 102.76,-261.91 102.99,-258.73 103.23,-255.56 103.55,-250.99 103.88,-246.43 103.93,-241.31 103.98,-236.19 104.04,-230.23 104.11,-224.28 104.20,-218.38 104.29,-212.48 104.41,-206.05 104.53,-199.61 104.69,-191.91 104.85,-184.21 105.06,-175.56 105.27,-166.91 105.53,-159.40 105.79,-151.88 106.06,-145.59 106.34,-139.29 105.96,-136.19 105.58,-133.10 102.35,-130.65 99.11,-128.21 96.76,-128.38 94.41,-128.56 90.58,-128.70 86.74,-128.83 82.75,-129.00 78.76,-129.17 75.71,-129.44 72.66,-129.71 70.43,-130.04 68.20,-130.36 65.68,-130.62 63.16,-130.88 59.26,-131.04 55.35,-131.21 50.41,-131.46 45.47,-131.71 39.93,-131.78 34.39,-131.85 29.28,-131.52 24.17,-131.20 19.60,-130.72 15.03,-130.24 13.88,-126.97 12.72,-123.70 11.91,-121.63 11.09,-119.55 10.16,-116.69 9.23,-113.83 8.58,-109.92 7.93,-106.01 7.09,-102.56 6.26,-99.10 5.70,-95.41 5.14,-91.72 4.66,-87.72 4.18,-83.71 3.75,-79.70 3.32,-75.68 3.03,-71.63 2.74,-67.58 2.76,-63.25 2.78,-58.91 2.81,-53.44 2.84,-47.97 2.88,-41.19 2.92,-34.41 2.98,-27.25 3.03,-20.09 3.11,-14.07 3.19,-8.04 3.22,-4.02 3.24,0 3.20,0.38 3.15,0.77 3.01,1.14 2.87,1.51 2.65,1.83 2.43,2.15 2.13,2.41 1.84,2.67 1.49,2.85 1.15,3.03 0.77,3.13 0.39,3.22 -0.00,3.22 -0.39,3.22 -0.77,3.13 -1.15,3.03 -1.49,2.85 -1.84,2.67 -2.13,2.41 -2.43,2.15 -2.65,1.83 -2.87,1.50 -3.01,1.14 -3.15,0.77 -3.20,0.38 -3.24,-0.00 -3.24,-0.00 L -3.24,0 Z"></path></g><g transform="translate(14 697) rotate(0 377.5 -36.5)" stroke="none"><path fill="#1e1e1e" d="M 1.41,-3.18 Q 1.41,-3.18 4.06,-2.16 6.70,-1.14 9.25,-0.21 11.80,0.71 15.24,2.40 18.68,4.10 22.45,6.43 26.23,8.76 30.41,11.54 34.58,14.31 39.42,17.20 44.25,20.09 49.15,22.77 54.05,25.45 58.10,27.45 62.15,29.45 65.66,31.12 69.17,32.79 72.10,33.92 75.03,35.06 77.67,36.42 80.32,37.77 82.69,38.75 85.06,39.72 87.33,40.68 89.60,41.64 92.29,42.91 94.99,44.18 97.31,45.23 99.63,46.28 103.17,47.41 106.72,48.53 110.26,50.24 113.80,51.94 115.96,53.30 118.12,54.67 120.17,56.10 122.22,57.53 124.94,58.76 127.65,59.98 129.91,61.16 132.17,62.34 136.62,60.33 141.07,58.33 143.78,56.50 146.49,54.67 150.00,52.69 153.51,50.71 156.56,48.67 159.62,46.64 162.89,44.75 166.15,42.87 168.27,40.92 170.38,38.98 173.25,36.62 176.12,34.27 178.70,31.92 181.28,29.57 183.90,27.32 186.51,25.07 189.05,22.95 191.60,20.83 194.11,18.77 196.62,16.71 199.52,14.64 202.42,12.58 205.63,10.20 208.85,7.81 212.30,5.14 215.75,2.47 219.60,-0.39 223.45,-3.25 227.14,-5.89 230.82,-8.52 234.42,-11.06 238.01,-13.59 241.89,-16.12 245.78,-18.65 250.06,-21.17 254.34,-23.69 258.69,-26.44 263.04,-29.19 267.81,-32.10 272.57,-35.01 276.88,-37.67 281.20,-40.33 285.33,-42.90 289.47,-45.46 293.20,-47.96 296.94,-50.46 300.20,-52.95 303.45,-55.43 306.54,-57.95 309.62,-60.47 312.68,-62.79 315.74,-65.11 318.45,-67.07 321.16,-69.04 323.34,-70.78 325.51,-72.52 327.12,-74.10 328.73,-75.69 331.34,-78.67 333.94,-81.64 336.45,-84.03 338.95,-86.43 341.88,-88.67 344.81,-90.91 347.90,-93.48 350.99,-96.05 352.66,-97.39 354.32,-98.72 358.35,-101.47 362.37,-104.22 364.76,-105.91 367.15,-107.60 368.90,-109.13 370.66,-110.66 372.21,-112.12 373.77,-113.58 375.37,-115.50 376.98,-117.42 380.95,-118.72 384.93,-120.02 387.78,-118.29 390.64,-116.57 392.57,-114.73 394.50,-112.90 396.75,-110.16 399.01,-107.43 401.61,-104.19 404.22,-100.95 407.59,-96.82 410.97,-92.68 414.57,-88.61 418.18,-84.55 421.43,-80.70 424.69,-76.84 427.48,-73.44 430.27,-70.03 432.65,-67.58 435.04,-65.12 437.00,-63.30 438.96,-61.49 441.41,-59.44 443.85,-57.39 445.80,-55.83 447.75,-54.27 449.29,-52.56 450.83,-50.86 452.63,-49.30 454.43,-47.74 457.97,-47.95 461.52,-48.17 463.59,-48.83 465.65,-49.49 468.95,-50.46 472.24,-51.43 476.59,-52.73 480.94,-54.02 485.28,-55.83 489.63,-57.64 494.13,-59.77 498.63,-61.89 503.82,-64.22 509.01,-66.54 514.21,-68.39 519.42,-70.24 524.20,-71.84 528.99,-73.44 533.30,-74.94 537.61,-76.45 541.99,-78.21 546.37,-79.96 550.51,-81.83 554.65,-83.70 558.45,-85.39 562.26,-87.08 566.22,-88.66 570.18,-90.24 573.82,-91.80 577.46,-93.37 581.44,-94.65 585.41,-95.94 589.17,-96.86 592.94,-97.77 596.76,-98.70 600.59,-99.62 604.75,-100.80 608.91,-101.97 613.28,-103.31 617.65,-104.66 622.41,-106.09 627.17,-107.52 631.84,-108.70 636.50,-109.89 641.08,-110.96 645.65,-112.04 650.26,-112.79 654.88,-113.55 659.34,-114.42 663.81,-115.30 668.30,-116.24 672.79,-117.19 676.89,-118.42 681.00,-119.66 685.13,-120.78 689.25,-121.90 692.75,-122.82 696.24,-123.73 698.98,-124.77 701.72,-125.81 704.97,-126.86 708.21,-127.91 711.26,-128.97 714.30,-130.03 717.31,-131.10 720.31,-132.16 722.94,-133.23 725.58,-134.30 727.94,-135.17 730.31,-136.04 733.28,-137.93 736.24,-139.83 738.50,-141.15 740.75,-142.47 742.86,-143.92 744.96,-145.38 748.54,-146.83 752.12,-148.29 753.07,-148.46 754.02,-148.63 754.97,-148.50 755.92,-148.36 756.78,-147.92 757.64,-147.48 758.31,-146.79 758.99,-146.11 759.41,-145.24 759.82,-144.37 759.95,-143.42 760.07,-142.46 759.87,-141.52 759.68,-140.57 759.20,-139.74 758.72,-138.91 757.99,-138.27 757.27,-137.63 756.38,-137.26 755.49,-136.89 754.53,-136.82 753.57,-136.75 752.64,-137.00 751.71,-137.24 750.90,-137.77 750.10,-138.29 749.50,-139.05 748.90,-139.81 748.58,-140.71 748.26,-141.62 748.24,-142.58 748.23,-143.55 748.52,-144.46 748.81,-145.38 749.38,-146.16 749.95,-146.94 750.74,-147.49 751.53,-148.04 752.45,-148.32 753.37,-148.59 754.34,-148.55 755.30,-148.52 756.20,-148.18 757.10,-147.83 757.84,-147.22 758.59,-146.61 759.10,-145.79 759.61,-144.98 759.83,-144.04 760.05,-143.10 759.97,-142.14 759.88,-141.19 759.49,-140.30 759.10,-139.42 758.45,-138.71 757.80,-138.00 756.95,-137.54 756.11,-137.07 756.11,-137.07 756.11,-137.07 752.28,-135.73 748.44,-134.38 745.99,-133.35 743.54,-132.32 740.95,-131.26 738.37,-130.19 735.61,-129.02 732.85,-127.85 730.59,-127.29 728.34,-126.74 725.51,-125.82 722.68,-124.90 719.59,-123.98 716.51,-123.06 713.34,-122.15 710.17,-121.25 706.92,-120.39 703.66,-119.52 700.58,-118.77 697.50,-118.01 694.07,-117.40 690.64,-116.79 686.59,-115.69 682.53,-114.58 678.21,-113.28 673.89,-111.98 669.37,-111.02 664.85,-110.05 660.30,-109.14 655.76,-108.23 651.33,-107.49 646.91,-106.75 642.40,-105.66 637.88,-104.57 633.35,-103.37 628.81,-102.17 624.10,-100.69 619.38,-99.21 614.99,-97.76 610.59,-96.32 606.30,-94.98 602.01,-93.65 598.13,-92.74 594.25,-91.83 590.71,-91.13 587.16,-90.43 583.41,-89.26 579.66,-88.09 575.96,-86.59 572.25,-85.09 568.39,-83.52 564.53,-81.95 560.76,-80.28 556.99,-78.61 552.77,-76.63 548.56,-74.65 544.10,-72.77 539.64,-70.89 535.34,-69.25 531.04,-67.62 526.38,-65.88 521.72,-64.14 516.87,-62.20 512.03,-60.25 507.10,-57.70 502.18,-55.15 497.76,-52.59 493.34,-50.02 488.87,-47.54 484.41,-45.07 480.21,-43.05 476.01,-41.03 472.71,-39.61 469.41,-38.19 464.80,-36.85 460.19,-35.50 457.21,-35.07 454.23,-34.64 451.71,-35.68 449.20,-36.71 447.27,-39.17 445.34,-41.63 443.01,-44.45 440.68,-47.28 439.12,-49.25 437.57,-51.21 435.54,-53.73 433.51,-56.25 431.73,-58.33 429.96,-60.41 427.62,-63.05 425.27,-65.69 422.34,-68.88 419.41,-72.06 415.98,-75.59 412.55,-79.12 408.54,-82.95 404.52,-86.78 400.79,-90.41 397.07,-94.04 393.78,-96.88 390.49,-99.73 388.36,-101.85 386.22,-103.98 384.35,-105.15 382.48,-106.32 380.10,-104.40 377.71,-102.48 375.66,-100.73 373.61,-98.97 371.11,-97.00 368.61,-95.02 366.32,-93.39 364.03,-91.76 361.12,-89.76 358.22,-87.76 356.39,-86.23 354.55,-84.70 351.20,-82.48 347.84,-80.26 345.16,-78.56 342.47,-76.87 339.81,-74.89 337.15,-72.91 335.47,-71.31 333.80,-69.70 331.72,-68.18 329.64,-66.66 327.19,-65.14 324.73,-63.62 321.97,-61.97 319.20,-60.33 316.15,-58.22 313.09,-56.12 309.90,-53.62 306.70,-51.13 303.30,-48.59 299.91,-46.04 296.11,-43.48 292.30,-40.92 288.17,-38.33 284.04,-35.75 279.73,-33.06 275.42,-30.37 270.72,-27.46 266.01,-24.54 261.62,-21.70 257.22,-18.87 253.09,-16.36 248.96,-13.86 245.24,-11.32 241.51,-8.78 238.02,-6.16 234.53,-3.54 231.01,-0.82 227.50,1.90 223.88,4.88 220.27,7.87 216.98,10.84 213.68,13.81 210.50,16.59 207.32,19.37 204.64,21.33 201.95,23.29 199.45,25.30 196.94,27.31 194.45,29.35 191.95,31.39 189.47,33.53 186.99,35.66 184.35,38.21 181.71,40.76 179.05,43.17 176.40,45.58 173.63,48.08 170.87,50.57 168.07,52.38 165.27,54.18 162.17,56.76 159.07,59.34 156.22,61.47 153.36,63.59 150.56,66.00 147.77,68.41 145.41,70.13 143.04,71.84 140.95,73.17 138.86,74.50 134.35,74.61 129.83,74.72 127.27,73.01 124.72,71.31 122.33,69.95 119.95,68.58 117.96,67.46 115.97,66.33 114.10,64.97 112.23,63.61 108.75,61.42 105.28,59.24 102.77,57.76 100.25,56.28 97.94,55.32 95.62,54.35 93.38,53.13 91.15,51.91 88.53,50.54 85.91,49.18 83.79,47.98 81.67,46.79 79.14,45.41 76.61,44.03 74.47,42.56 72.34,41.08 69.44,39.62 66.54,38.16 63.09,36.41 59.64,34.66 55.44,32.69 51.24,30.72 46.19,28.11 41.14,25.50 36.10,22.71 31.06,19.92 26.89,17.44 22.71,14.96 19.02,13.06 15.33,11.16 12.01,9.64 8.69,8.13 6.16,6.94 3.64,5.74 1.11,4.46 -1.41,3.18 -1.77,2.96 -2.13,2.75 -2.43,2.45 -2.73,2.16 -2.95,1.80 -3.17,1.44 -3.29,1.04 -3.42,0.64 -3.45,0.22 -3.47,-0.19 -3.40,-0.60 -3.33,-1.02 -3.16,-1.40 -2.99,-1.78 -2.73,-2.12 -2.47,-2.45 -2.14,-2.71 -1.81,-2.97 -1.43,-3.14 -1.05,-3.32 -0.63,-3.39 -0.22,-3.47 0.19,-3.45 0.61,-3.43 1.01,-3.30 1.41,-3.18 1.41,-3.18 L 1.41,-3.18 Z"></path></g><g transform="translate(179 722) rotate(0 -5 -142)" stroke="none"><path fill="#1e1e1e" d="M 0,5.27 Q 0,5.27 -2.58,5.27 -5.17,5.28 -7.42,5.32 -9.67,5.37 -12.06,5.39 -14.46,5.41 -16.62,5.45 -18.79,5.49 -21.70,5.85 -24.60,6.21 -26.75,6.41 -28.89,6.61 -32.25,6.78 -35.60,6.95 -38.26,7.05 -40.92,7.15 -43.45,7.23 -45.98,7.30 -48.32,7.37 -50.66,7.43 -54.73,6.31 -58.80,5.18 -60.30,3.67 -61.80,2.16 -61.66,-2.30 -61.53,-6.77 -60.15,-11.14 -58.77,-15.50 -57.12,-19.79 -55.47,-24.08 -54.43,-27.92 -53.40,-31.77 -52.73,-35.19 -52.05,-38.62 -51.58,-41.32 -51.10,-44.02 -51.05,-47.14 -51.00,-50.25 -51.19,-52.92 -51.38,-55.59 -49.91,-59.39 -48.43,-63.20 -45.24,-63.89 -42.06,-64.59 -38.85,-64.53 -35.64,-64.47 -31.42,-64.14 -27.21,-63.81 -21.97,-63.53 -16.73,-63.25 -11.63,-63.04 -6.53,-62.82 -1.78,-62.66 2.97,-62.50 6.71,-62.50 10.46,-62.50 12.91,-62.68 15.37,-62.85 14.84,-66.62 14.32,-70.38 13.77,-73.50 13.21,-76.62 12.73,-80.00 12.25,-83.38 11.61,-86.99 10.97,-90.61 10.53,-94.93 10.08,-99.26 9.53,-102.74 8.98,-106.22 8.64,-109.28 8.29,-112.35 7.80,-114.56 7.30,-116.77 7.30,-119.28 7.29,-121.79 8.87,-124.05 10.44,-126.32 14.43,-127.47 18.43,-128.62 22.84,-128.98 27.24,-129.33 31.79,-129.38 36.33,-129.43 40.55,-129.41 44.77,-129.38 47.82,-129.80 50.88,-130.21 53.16,-130.52 55.45,-130.84 55.62,-133.33 55.80,-135.81 55.96,-139.30 56.12,-142.79 56.14,-147.02 56.15,-151.25 56.25,-156.07 56.34,-160.90 56.12,-164.82 55.89,-168.74 55.65,-171.96 55.41,-175.17 55.23,-177.98 55.05,-180.80 54.62,-182.89 54.19,-184.98 50.14,-185.42 46.09,-185.86 42.34,-186.09 38.59,-186.33 34.11,-186.61 29.63,-186.89 24.56,-187.09 19.49,-187.29 14.75,-187.44 10.01,-187.59 5.80,-187.41 1.59,-187.23 -2.49,-186.88 -6.58,-186.53 -10.13,-186.25 -13.68,-185.97 -16.64,-185.74 -19.59,-185.51 -22.08,-185.05 -24.58,-184.60 -28.44,-184.09 -32.31,-183.58 -34.80,-183.31 -37.28,-183.05 -40.10,-182.80 -42.92,-182.55 -46.26,-182.37 -49.59,-182.20 -52.30,-182.25 -55.00,-182.30 -57.87,-182.37 -60.75,-182.44 -63.41,-182.46 -66.06,-182.49 -68.47,-182.93 -70.88,-183.38 -72.93,-185.08 -74.98,-186.79 -75.58,-190.97 -76.19,-195.15 -75.65,-200.47 -75.11,-205.79 -74.45,-212.26 -73.80,-218.72 -73.14,-225.49 -72.48,-232.25 -71.84,-239.15 -71.20,-246.04 -70.30,-252.50 -69.39,-258.96 -68.68,-263.41 -67.98,-267.86 -67.91,-270.56 -67.84,-273.26 -67.61,-275.50 -67.38,-277.74 -67.34,-281.20 -67.31,-284.66 -67.17,-285.34 -67.03,-286.03 -66.68,-286.63 -66.33,-287.23 -65.81,-287.69 -65.29,-288.14 -64.64,-288.41 -64.00,-288.68 -63.31,-288.73 -62.62,-288.77 -61.94,-288.60 -61.27,-288.42 -60.69,-288.04 -60.11,-287.66 -59.68,-287.11 -59.25,-286.57 -59.02,-285.91 -58.79,-285.26 -58.78,-284.56 -58.77,-283.87 -58.98,-283.21 -59.19,-282.54 -59.60,-281.98 -60.01,-281.43 -60.58,-281.03 -61.15,-280.63 -61.82,-280.43 -62.48,-280.24 -63.18,-280.26 -63.87,-280.29 -64.52,-280.54 -65.17,-280.78 -65.71,-281.23 -66.25,-281.67 -66.61,-282.26 -66.98,-282.85 -67.14,-283.52 -67.30,-284.20 -67.23,-284.89 -67.17,-285.58 -66.89,-286.22 -66.61,-286.85 -66.14,-287.37 -65.67,-287.88 -65.06,-288.21 -64.45,-288.55 -63.76,-288.67 -63.08,-288.79 -62.39,-288.69 -61.70,-288.59 -61.09,-288.27 -60.47,-287.96 -59.98,-287.46 -59.50,-286.96 -59.19,-286.34 -58.89,-285.71 -58.81,-285.02 -58.72,-284.33 -58.72,-284.33 -58.72,-284.33 -58.90,-281.86 -59.09,-279.38 -60.00,-275.99 -60.92,-272.60 -61.38,-269.80 -61.84,-267.01 -62.37,-262.59 -62.90,-258.17 -63.54,-251.86 -64.19,-245.56 -64.51,-238.65 -64.82,-231.75 -65.04,-225.00 -65.27,-218.24 -65.34,-211.84 -65.41,-205.44 -65.74,-199.47 -66.06,-193.50 -63.41,-193.53 -60.75,-193.55 -57.87,-193.62 -55.00,-193.69 -52.30,-193.74 -49.59,-193.79 -46.26,-193.62 -42.93,-193.44 -40.15,-193.21 -37.37,-192.97 -34.99,-192.78 -32.61,-192.59 -29.06,-192.46 -25.50,-192.33 -22.64,-192.52 -19.77,-192.70 -16.89,-192.62 -14.01,-192.53 -10.60,-192.60 -7.19,-192.67 -3.01,-193.14 1.16,-193.60 5.59,-194.00 10.01,-194.39 14.76,-194.53 19.50,-194.67 24.59,-194.85 29.67,-195.04 34.19,-195.27 38.71,-195.51 42.61,-195.64 46.50,-195.78 49.64,-195.65 52.78,-195.52 55.85,-194.77 58.92,-194.02 60.82,-190.07 62.73,-186.13 62.93,-183.55 63.12,-180.98 63.06,-178.25 63.00,-175.51 63.05,-172.43 63.10,-169.35 63.55,-165.22 63.99,-161.09 64.32,-156.44 64.66,-151.79 65.22,-147.25 65.79,-142.72 65.90,-139.13 66.01,-135.53 65.87,-133.06 65.72,-130.59 64.07,-127.37 62.41,-124.14 59.19,-123.44 55.97,-122.73 53.81,-122.77 51.65,-122.80 48.30,-122.55 44.95,-122.29 40.86,-122.06 36.77,-121.82 32.59,-121.38 28.42,-120.93 24.49,-120.12 20.56,-119.31 18.20,-118.73 15.83,-118.15 16.12,-115.58 16.40,-113.00 16.52,-110.22 16.64,-107.44 17.20,-103.93 17.76,-100.42 18.57,-96.42 19.38,-92.42 20.34,-88.61 21.29,-84.81 21.86,-81.56 22.44,-78.30 23.00,-75.29 23.57,-72.27 24.30,-68.83 25.03,-65.40 23.69,-60.79 22.35,-56.19 18.86,-55.66 15.37,-55.14 12.91,-55.31 10.46,-55.48 6.71,-55.48 2.97,-55.48 -1.77,-55.32 -6.53,-55.16 -11.62,-54.93 -16.72,-54.71 -21.94,-54.42 -27.16,-54.12 -31.32,-53.75 -35.47,-53.39 -37.99,-55.16 -40.50,-56.93 -40.76,-54.18 -41.02,-51.44 -41.39,-48.98 -41.75,-46.52 -42.15,-44.36 -42.54,-42.21 -43.18,-39.66 -43.82,-37.11 -44.42,-33.60 -45.02,-30.08 -45.64,-25.71 -46.25,-21.35 -47.13,-17.13 -48.00,-12.92 -48.73,-7.69 -49.46,-2.46 -51.72,-4.00 -53.97,-5.55 -51.42,-5.45 -48.87,-5.36 -46.07,-5.30 -43.28,-5.24 -40.75,-5.17 -38.21,-5.09 -35.48,-5.03 -32.75,-4.97 -29.67,-5.01 -26.60,-5.06 -22.69,-5.27 -18.79,-5.49 -16.62,-5.45 -14.46,-5.41 -12.06,-5.39 -9.67,-5.37 -7.42,-5.32 -5.17,-5.28 -2.58,-5.27 0,-5.27 0.63,-5.19 1.26,-5.11 1.85,-4.89 2.45,-4.66 2.97,-4.30 3.49,-3.94 3.91,-3.47 4.33,-2.99 4.63,-2.43 4.92,-1.86 5.08,-1.25 5.23,-0.63 5.23,0.00 5.23,0.63 5.08,1.25 4.92,1.86 4.63,2.43 4.33,2.99 3.91,3.47 3.49,3.94 2.97,4.30 2.44,4.66 1.85,4.89 1.26,5.11 0.63,5.19 -0.00,5.27 -0.00,5.27 L 0,5.27 Z"></path></g><g transform="translate(16 387) rotate(0 179 97.5)" stroke="none"><path fill="#1e1e1e" d="M 1.10,-2.94 Q 1.10,-2.94 5.67,-1.15 10.25,0.63 15.54,2.24 20.83,3.85 26.86,5.72 32.89,7.59 40.06,9.83 47.22,12.07 54.32,14.48 61.41,16.89 67.59,19.07 73.77,21.25 79.09,23.66 84.40,26.07 89.19,28.23 93.99,30.38 97.78,32.16 101.58,33.93 104.75,35.44 107.92,36.95 110.43,38.03 112.95,39.11 116.30,40.12 119.64,41.14 123.27,41.94 126.91,42.74 131.08,40.23 135.24,37.72 137.95,35.43 140.65,33.14 144.50,30.68 148.35,28.21 152.32,25.84 156.28,23.47 160.23,20.85 164.17,18.24 168.18,15.44 172.19,12.64 175.95,10.03 179.71,7.43 183.03,5.13 186.36,2.83 189.10,0.67 191.84,-1.48 193.95,-3.74 196.06,-6.01 198.20,-8.06 200.35,-10.11 202.38,-11.91 204.42,-13.71 205.98,-15.30 207.54,-16.89 209.18,-18.34 210.83,-19.78 213.07,-21.41 215.31,-23.03 218.87,-22.77 222.43,-22.50 225.08,-21.76 227.72,-21.02 229.73,-20.19 231.73,-19.36 234.01,-18.49 236.29,-17.63 239.58,-16.19 242.88,-14.75 246.36,-13.48 249.85,-12.21 253.85,-10.92 257.86,-9.63 262.40,-8.42 266.94,-7.21 271.83,-5.74 276.72,-4.27 281.92,-2.75 287.12,-1.22 293.29,0.30 299.47,1.83 305.84,3.38 312.22,4.92 318.87,6.16 325.53,7.39 330.66,8.22 335.79,9.04 339.20,9.54 342.62,10.03 345.83,10.47 349.04,10.91 351.41,13.27 353.78,15.63 354.34,18.60 354.89,21.57 355.60,24.73 356.31,27.89 356.52,31.15 356.74,34.41 357.19,38.28 357.64,42.15 357.64,44.99 357.63,47.83 357.81,50.80 357.98,53.77 357.92,57.59 357.87,61.41 358.12,64.53 358.37,67.64 358.75,70.68 359.13,73.72 359.32,76.96 359.50,80.20 359.85,83.08 360.19,85.96 360.35,89.13 360.52,92.30 360.65,94.79 360.79,97.27 361.26,100.44 361.73,103.60 362.10,106.96 362.47,110.31 362.53,112.53 362.58,114.74 362.56,117.40 362.54,120.06 362.80,122.32 363.06,124.58 363.34,128.75 363.62,132.92 363.71,136.85 363.80,140.77 363.85,144.88 363.89,148.99 363.88,151.29 363.87,153.59 363.85,156.01 363.83,158.42 363.81,160.89 363.79,163.35 363.79,165.55 363.80,167.75 363.84,171.87 363.88,175.99 363.87,178.29 363.86,180.59 363.94,183.79 364.02,186.99 364.10,189.91 364.17,192.84 363.81,195.65 363.44,198.47 363.04,201.51 362.65,204.55 362.31,208.01 361.96,211.47 361.86,212.75 361.76,214.02 361.47,215.07 361.18,216.11 360.56,217.01 359.95,217.91 359.08,218.57 358.22,219.23 357.18,219.57 356.15,219.92 355.06,219.92 353.97,219.92 352.94,219.57 351.91,219.22 351.05,218.56 350.18,217.90 349.57,216.99 348.96,216.09 348.67,215.04 348.38,213.99 348.44,212.91 348.51,211.82 348.91,210.81 349.32,209.80 350.02,208.97 350.73,208.14 351.66,207.58 352.60,207.02 353.66,206.79 354.72,206.56 355.81,206.68 356.89,206.80 357.87,207.26 358.86,207.72 359.65,208.47 360.44,209.22 360.95,210.18 361.46,211.14 361.63,212.22 361.80,213.29 361.62,214.37 361.45,215.44 360.93,216.40 360.42,217.36 359.63,218.11 358.84,218.85 357.85,219.31 356.86,219.76 355.78,219.88 354.70,220.00 353.63,219.76 352.57,219.52 351.64,218.96 350.71,218.40 350.00,217.57 349.30,216.73 348.90,215.72 348.50,214.71 348.44,213.62 348.39,212.54 348.39,212.54 348.39,212.54 348.88,209.87 349.37,207.19 349.54,204.99 349.72,202.80 350.21,200.65 350.70,198.51 351.26,195.65 351.82,192.79 351.89,189.89 351.97,186.99 352.05,183.79 352.13,180.59 352.12,178.29 352.11,175.99 352.15,171.87 352.19,167.75 352.20,165.55 352.20,163.35 352.18,160.89 352.16,158.43 352.14,156.01 352.12,153.60 352.11,151.30 352.10,149.00 352.13,144.91 352.16,140.83 352.19,137.02 352.22,133.22 352.14,129.53 352.07,125.84 351.74,122.97 351.42,120.11 351.39,115.39 351.36,110.67 351.37,108.06 351.38,105.46 351.19,101.50 351.01,97.54 351.01,95.16 351.01,92.79 350.87,89.95 350.72,87.10 350.33,83.94 349.94,80.78 349.76,77.91 349.58,75.05 349.09,71.86 348.61,68.66 348.17,65.22 347.73,61.78 347.41,58.30 347.09,54.83 346.64,51.44 346.20,48.05 346.09,45.41 345.98,42.76 345.58,38.68 345.18,34.59 345.31,31.49 345.44,28.39 345.16,26.00 344.88,23.61 345.42,20.75 345.95,17.89 343.71,17.00 341.48,16.11 338.21,15.34 334.93,14.58 329.73,13.81 324.52,13.03 317.70,11.86 310.88,10.68 304.47,9.26 298.06,7.83 291.74,6.44 285.42,5.04 280.18,3.74 274.93,2.44 270.12,1.32 265.31,0.20 260.56,-0.62 255.81,-1.45 251.47,-2.25 247.13,-3.05 243.17,-3.98 239.22,-4.92 235.81,-5.98 232.41,-7.04 228.27,-8.70 224.13,-10.37 221.38,-12.23 218.63,-14.09 215.97,-12.28 213.31,-10.47 211.39,-8.93 209.47,-7.40 207.37,-5.90 205.28,-4.39 203.12,-2.73 200.97,-1.06 198.37,1.34 195.76,3.75 192.83,5.84 189.89,7.92 186.63,10.20 183.36,12.47 179.73,15.21 176.10,17.95 172.20,20.98 168.29,24.00 164.44,26.97 160.58,29.93 157.02,32.57 153.46,35.21 150.43,37.77 147.40,40.33 144.73,43.09 142.06,45.86 139.86,47.79 137.65,49.71 135.86,51.04 134.07,52.37 131.74,52.93 129.41,53.50 126.76,52.60 124.11,51.70 120.52,50.33 116.92,48.97 113.37,47.06 109.82,45.15 107.46,43.70 105.09,42.25 102.19,40.53 99.28,38.81 95.54,37.03 91.81,35.25 87.00,33.10 82.19,30.96 77.09,28.65 71.98,26.35 65.83,24.21 59.67,22.07 52.63,19.72 45.59,17.37 38.42,15.18 31.25,13.00 25.22,11.21 19.18,9.42 13.66,7.84 8.14,6.26 3.52,4.60 -1.10,2.94 -1.44,2.77 -1.77,2.59 -2.06,2.34 -2.34,2.09 -2.56,1.78 -2.78,1.47 -2.91,1.11 -3.05,0.76 -3.09,0.38 -3.14,0.01 -3.10,-0.36 -3.05,-0.74 -2.92,-1.09 -2.79,-1.45 -2.57,-1.76 -2.36,-2.07 -2.07,-2.33 -1.79,-2.58 -1.46,-2.76 -1.12,-2.93 -0.75,-3.02 -0.39,-3.12 -0.01,-3.12 0.36,-3.12 0.73,-3.03 1.10,-2.94 1.10,-2.94 L 1.10,-2.94 Z"></path></g><g transform="translate(122 419) rotate(0 282 -99)" stroke="none"><path fill="#1e1e1e" d="M -3.12,0 Q -3.12,0 -3.05,-5.17 -2.98,-10.35 -2.93,-15.71 -2.88,-21.07 -2.85,-27.09 -2.81,-33.10 -2.50,-40.31 -2.18,-47.53 -1.75,-54.90 -1.32,-62.28 -0.85,-70.01 -0.37,-77.74 0.11,-85.34 0.61,-92.94 1.11,-99.91 1.61,-106.89 2.11,-113.02 2.61,-119.16 3.12,-123.81 3.63,-128.46 3.72,-132.08 3.81,-135.71 4.09,-139.37 4.37,-143.03 4.73,-146.60 5.10,-150.18 5.26,-153.86 5.42,-157.54 5.70,-160.99 5.98,-164.44 5.99,-167.21 6.00,-169.98 5.93,-172.58 5.86,-175.18 5.74,-177.43 5.63,-179.68 5.40,-183.26 5.17,-186.83 4.91,-189.74 4.65,-192.65 5.90,-195.70 7.15,-198.75 10.47,-199.82 13.79,-200.89 18.41,-201.02 23.04,-201.14 29.39,-201.06 35.75,-200.98 43.81,-201.13 51.87,-201.28 62.27,-201.28 72.66,-201.28 83.97,-201.22 95.28,-201.17 107.28,-201.11 119.27,-201.05 130.69,-201.00 142.11,-200.95 153.00,-200.90 163.89,-200.86 173.74,-200.54 183.58,-200.22 192.09,-199.79 200.59,-199.35 207.10,-198.87 213.61,-198.39 218.34,-198.18 223.06,-197.98 225.77,-198.10 228.48,-198.22 230.89,-196.99 233.31,-195.76 234.62,-192.62 235.94,-189.48 236.42,-185.37 236.91,-181.26 237.28,-176.08 237.66,-170.89 238.06,-164.94 238.46,-159.00 238.88,-153.62 239.30,-148.24 239.51,-144.17 239.73,-140.09 240.30,-137.69 240.87,-135.30 244.16,-137.10 247.45,-138.91 252.27,-139.94 257.08,-140.98 264.11,-142.22 271.13,-143.46 280.81,-144.52 290.50,-145.58 300.67,-146.28 310.84,-146.97 321.24,-147.24 331.63,-147.50 342.30,-148.17 352.96,-148.83 362.37,-149.67 371.78,-150.51 380.03,-151.71 388.28,-152.91 394.67,-153.98 401.05,-155.06 404.99,-155.60 408.92,-156.14 411.51,-156.31 414.10,-156.48 416.20,-154.90 418.29,-153.31 419.72,-149.94 421.14,-146.58 421.80,-141.52 422.45,-136.46 422.93,-130.33 423.42,-124.21 423.87,-117.30 424.32,-110.39 424.77,-103.44 425.22,-96.48 425.39,-90.60 425.56,-84.72 425.90,-80.00 426.24,-75.28 426.88,-72.52 427.52,-69.77 429.61,-68.83 431.70,-67.90 436.00,-68.06 440.30,-68.22 446.56,-68.23 452.82,-68.23 460.64,-68.19 468.46,-68.14 477.53,-68.08 486.59,-68.03 496.53,-67.69 506.46,-67.35 515.81,-67.19 525.17,-67.03 533.46,-66.95 541.75,-66.87 547.86,-66.82 553.97,-66.78 558.08,-66.97 562.19,-67.17 562.70,-67.08 563.20,-67.00 563.65,-66.76 564.11,-66.51 564.46,-66.14 564.81,-65.77 565.02,-65.30 565.23,-64.84 565.29,-64.33 565.34,-63.82 565.23,-63.32 565.12,-62.82 564.85,-62.38 564.59,-61.94 564.20,-61.61 563.81,-61.28 563.33,-61.09 562.85,-60.91 562.34,-60.88 561.83,-60.85 561.34,-60.99 560.84,-61.13 560.42,-61.42 560.00,-61.71 559.69,-62.12 559.38,-62.53 559.22,-63.01 559.06,-63.50 559.06,-64.01 559.06,-64.52 559.22,-65.01 559.39,-65.49 559.70,-65.90 560.01,-66.31 560.44,-66.59 560.86,-66.88 561.36,-67.01 561.85,-67.15 562.36,-67.12 562.87,-67.09 563.35,-66.90 563.82,-66.71 564.21,-66.38 564.60,-66.04 564.86,-65.60 565.13,-65.16 565.24,-64.66 565.34,-64.16 565.29,-63.65 565.23,-63.14 565.01,-62.68 564.80,-62.22 564.44,-61.84 564.09,-61.47 563.64,-61.24 563.18,-61.00 562.68,-60.92 562.17,-60.83 562.17,-60.83 562.17,-60.83 558.06,-61.05 553.95,-61.27 547.83,-61.27 541.71,-61.27 533.40,-61.29 525.10,-61.30 515.70,-61.38 506.30,-61.45 496.45,-61.66 486.61,-61.88 477.56,-61.76 468.51,-61.65 460.76,-61.47 453.00,-61.29 446.97,-60.98 440.95,-60.67 436.63,-60.09 432.31,-59.51 428.58,-59.79 424.85,-60.06 423.10,-62.12 421.36,-64.17 421.25,-66.47 421.14,-68.78 420.88,-71.80 420.62,-74.83 420.20,-79.66 419.78,-84.50 419.51,-90.27 419.24,-96.04 418.66,-102.97 418.07,-109.90 417.44,-116.73 416.80,-123.55 416.09,-129.45 415.38,-135.35 414.56,-139.63 413.75,-143.91 411.68,-147.19 409.61,-150.46 405.79,-150.07 401.98,-149.68 395.54,-148.55 389.10,-147.43 380.70,-146.16 372.30,-144.88 362.83,-143.96 353.35,-143.04 342.59,-142.27 331.83,-141.50 321.58,-141.10 311.32,-140.71 301.32,-139.83 291.31,-138.96 281.93,-137.69 272.55,-136.42 265.83,-134.88 259.11,-133.35 254.59,-131.90 250.07,-130.46 247.31,-129.65 244.54,-128.83 239.77,-129.49 235.00,-130.14 234.50,-132.22 234.01,-134.29 233.82,-137.03 233.63,-139.76 233.42,-143.72 233.20,-147.67 232.62,-153.06 232.03,-158.45 231.42,-164.32 230.80,-170.19 230.15,-175.21 229.49,-180.24 228.90,-183.91 228.30,-187.59 228.06,-189.81 227.82,-192.02 225.33,-192.30 222.84,-192.59 218.03,-192.78 213.22,-192.96 206.78,-193.40 200.33,-193.84 191.87,-194.23 183.42,-194.61 173.66,-194.86 163.90,-195.11 153.01,-195.06 142.12,-195.01 130.70,-194.93 119.28,-194.86 107.30,-194.74 95.32,-194.62 84.05,-194.44 72.77,-194.25 62.50,-193.93 52.22,-193.61 44.12,-193.02 36.02,-192.43 30.04,-191.96 24.06,-191.48 19.54,-190.35 15.02,-189.21 14.78,-186.52 14.55,-183.84 14.41,-181.71 14.27,-179.58 14.11,-177.27 13.94,-174.97 13.73,-172.27 13.53,-169.56 13.22,-166.62 12.92,-163.67 12.46,-160.44 12.01,-157.21 11.79,-153.29 11.57,-149.36 11.04,-145.87 10.51,-142.38 10.03,-138.88 9.56,-135.38 9.22,-131.63 8.89,-127.89 8.40,-123.31 7.91,-118.73 7.42,-112.62 6.92,-106.51 6.44,-99.55 5.95,-92.60 5.48,-85.00 5.01,-77.41 4.56,-69.69 4.11,-61.97 3.72,-54.64 3.33,-47.30 3.07,-40.20 2.81,-33.10 2.85,-27.09 2.88,-21.07 2.93,-15.71 2.98,-10.35 3.05,-5.17 3.12,0 3.07,0.37 3.03,0.74 2.90,1.09 2.76,1.45 2.55,1.76 2.33,2.07 2.05,2.32 1.77,2.57 1.44,2.74 1.10,2.92 0.74,3.01 0.37,3.10 -0.00,3.10 -0.37,3.10 -0.74,3.01 -1.10,2.92 -1.44,2.74 -1.77,2.57 -2.05,2.32 -2.33,2.07 -2.55,1.76 -2.76,1.45 -2.90,1.09 -3.03,0.74 -3.07,0.37 -3.12,-0.00 -3.12,-0.00 L -3.12,0 Z"></path></g><g transform="translate(371 404) rotate(0 222 -58.5)" stroke="none"><path fill="#1e1e1e" d="M -0.67,-3.37 Q -0.67,-3.37 2.17,-4.08 5.02,-4.79 8.62,-5.35 12.23,-5.91 16.06,-6.38 19.89,-6.86 23.83,-7.30 27.76,-7.75 31.73,-8.19 35.71,-8.64 39.70,-9.09 43.69,-9.55 47.90,-10.23 52.10,-10.91 57.10,-11.75 62.09,-12.59 67.46,-13.23 72.82,-13.87 77.76,-14.13 82.69,-14.39 87.37,-14.48 92.06,-14.58 96.64,-14.61 101.22,-14.65 105.76,-14.65 110.29,-14.66 114.72,-14.95 119.15,-15.23 123.84,-15.91 128.53,-16.60 133.55,-16.90 138.57,-17.20 143.58,-17.33 148.59,-17.45 153.60,-17.51 158.60,-17.56 162.74,-17.61 166.87,-17.66 170.07,-17.85 173.27,-18.05 175.77,-18.26 178.28,-18.48 182.21,-19.10 186.13,-19.72 190.66,-20.55 195.20,-21.38 197.73,-21.54 200.26,-21.69 203.06,-21.75 205.86,-21.81 209.04,-22.63 212.22,-23.45 215.43,-24.24 218.63,-25.04 221.34,-25.97 224.04,-26.90 226.68,-27.44 229.33,-27.98 231.48,-28.65 233.63,-29.32 236.40,-30.15 239.16,-30.97 241.87,-32.04 244.58,-33.10 247.89,-34.34 251.20,-35.59 254.44,-36.72 257.69,-37.85 261.16,-38.85 264.64,-39.86 268.23,-41.20 271.81,-42.53 275.72,-44.13 279.63,-45.74 283.54,-47.76 287.45,-49.77 292.17,-51.82 296.90,-53.87 301.23,-55.57 305.55,-57.26 309.37,-58.83 313.19,-60.40 316.90,-61.73 320.61,-63.07 323.85,-64.28 327.10,-65.49 330.31,-67.05 333.52,-68.62 336.56,-70.43 339.59,-72.23 342.97,-74.16 346.34,-76.08 349.88,-77.81 353.42,-79.54 356.58,-81.17 359.74,-82.79 362.91,-84.16 366.07,-85.54 369.49,-86.71 372.91,-87.88 375.89,-89.20 378.88,-90.52 381.86,-91.95 384.84,-93.39 387.82,-94.87 390.81,-96.36 393.79,-97.86 396.78,-99.37 399.39,-100.88 402.00,-102.38 404.91,-103.93 407.82,-105.47 410.55,-106.79 413.28,-108.11 415.87,-109.29 418.47,-110.47 421.37,-111.57 424.28,-112.68 426.48,-113.72 428.68,-114.76 430.73,-115.81 432.78,-116.87 437.26,-119.23 441.75,-121.60 442.56,-121.75 443.37,-121.90 444.19,-121.78 445.00,-121.66 445.74,-121.28 446.47,-120.91 447.05,-120.32 447.63,-119.73 447.98,-118.99 448.34,-118.25 448.45,-117.43 448.55,-116.61 448.39,-115.81 448.22,-115.00 447.81,-114.29 447.40,-113.57 446.78,-113.03 446.16,-112.49 445.40,-112.17 444.64,-111.85 443.82,-111.79 442.99,-111.73 442.20,-111.94 441.40,-112.15 440.71,-112.60 440.02,-113.05 439.51,-113.70 439.00,-114.34 438.72,-115.12 438.45,-115.90 438.43,-116.72 438.42,-117.54 438.67,-118.33 438.92,-119.11 439.41,-119.78 439.90,-120.44 440.57,-120.92 441.24,-121.39 442.03,-121.62 442.82,-121.86 443.65,-121.83 444.47,-121.80 445.24,-121.50 446.01,-121.21 446.65,-120.69 447.29,-120.17 447.72,-119.47 448.16,-118.77 448.35,-117.97 448.54,-117.16 448.46,-116.34 448.39,-115.52 448.05,-114.77 447.72,-114.02 447.16,-113.41 446.61,-112.80 445.89,-112.40 445.17,-112.01 445.17,-112.01 445.17,-112.01 443.00,-111.08 440.83,-110.16 438.85,-109.15 436.87,-108.15 434.62,-107.19 432.37,-106.22 429.88,-105.23 427.39,-104.24 424.66,-103.27 421.93,-102.30 419.38,-101.30 416.84,-100.30 414.25,-99.20 411.66,-98.09 408.81,-96.64 405.96,-95.19 403.13,-93.71 400.31,-92.23 397.28,-90.76 394.24,-89.29 391.18,-87.83 388.11,-86.38 384.98,-84.96 381.84,-83.53 378.55,-82.19 375.26,-80.84 372.03,-79.81 368.81,-78.77 365.82,-77.65 362.83,-76.54 359.61,-75.00 356.40,-73.47 353.06,-71.84 349.72,-70.20 346.37,-68.26 343.02,-66.32 339.72,-64.45 336.41,-62.58 332.82,-60.90 329.23,-59.22 325.93,-58.21 322.64,-57.20 319.09,-56.02 315.53,-54.84 311.72,-53.19 307.92,-51.55 303.77,-49.74 299.63,-47.94 295.25,-45.80 290.87,-43.67 286.88,-41.25 282.89,-38.83 279.04,-36.77 275.19,-34.72 271.35,-32.84 267.50,-30.96 264.32,-29.83 261.13,-28.69 258.16,-27.49 255.19,-26.29 252.02,-24.74 248.84,-23.20 245.75,-21.77 242.66,-20.33 239.90,-19.34 237.14,-18.36 232.34,-17.03 227.54,-15.71 224.30,-14.86 221.05,-14.01 218.73,-13.72 216.40,-13.43 213.56,-13.00 210.73,-12.56 208.35,-12.33 205.98,-12.09 203.27,-12.08 200.55,-12.08 196.14,-12.05 191.72,-12.02 189.46,-11.72 187.19,-11.42 182.74,-11.46 178.29,-11.50 175.79,-11.71 173.28,-11.91 170.09,-12.09 166.90,-12.27 162.78,-12.27 158.66,-12.27 153.69,-12.22 148.73,-12.16 143.81,-12.03 138.90,-11.90 134.10,-11.61 129.30,-11.32 124.40,-10.60 119.50,-9.88 114.91,-9.57 110.32,-9.26 105.80,-9.23 101.29,-9.19 96.75,-9.12 92.21,-9.05 87.61,-8.90 83.02,-8.76 78.29,-8.44 73.56,-8.13 68.36,-7.42 63.17,-6.71 58.20,-5.73 53.23,-4.75 48.88,-3.86 44.52,-2.96 40.54,-2.41 36.57,-1.87 32.61,-1.31 28.66,-0.75 24.77,-0.18 20.87,0.37 17.11,0.93 13.35,1.49 9.91,1.99 6.47,2.49 3.57,2.93 0.67,3.37 0.26,3.41 -0.15,3.44 -0.56,3.37 -0.97,3.30 -1.35,3.14 -1.73,2.97 -2.06,2.72 -2.39,2.47 -2.65,2.15 -2.91,1.82 -3.09,1.45 -3.27,1.07 -3.35,0.67 -3.43,0.26 -3.41,-0.15 -3.39,-0.56 -3.28,-0.96 -3.16,-1.36 -2.95,-1.72 -2.74,-2.08 -2.45,-2.37 -2.16,-2.67 -1.81,-2.89 -1.46,-3.11 -1.06,-3.24 -0.67,-3.37 -0.67,-3.37 L -0.67,-3.37 Z"></path></g><g transform="translate(570 617) rotate(0 58.5 56.5)" stroke="none"><path fill="#1e1e1e" d="M 3.21,0 Q 3.21,0 3.13,5.46 3.05,10.92 2.99,16.98 2.93,23.04 2.89,30.21 2.85,37.39 2.53,44.80 2.21,52.22 2.07,60.20 1.92,68.19 1.85,75.89 1.79,83.60 2.32,90.80 2.86,97.99 3.09,103.73 3.32,109.47 3.50,113.35 3.68,117.22 3.96,119.73 4.23,122.24 4.63,125.58 5.04,128.91 5.28,130.87 5.53,132.82 5.46,133.37 5.40,133.91 5.21,134.42 5.01,134.93 4.70,135.38 4.39,135.83 3.99,136.20 3.58,136.56 3.10,136.82 2.61,137.07 2.08,137.20 1.55,137.34 1.01,137.34 0.46,137.34 -0.06,137.21 -0.59,137.08 -1.08,136.83 -1.56,136.58 -1.97,136.21 -2.38,135.85 -2.69,135.40 -3.01,134.95 -3.20,134.44 -3.40,133.93 -3.46,133.39 -3.53,132.85 0.46,130.32 4.47,127.79 9.23,127.11 13.99,126.42 20.79,125.61 27.59,124.80 35.78,124.51 43.97,124.22 52.95,124.43 61.93,124.64 70.72,125.64 79.52,126.63 87.52,127.65 95.53,128.67 101.23,129.41 106.92,130.14 109.60,130.51 112.28,130.89 111.82,127.83 111.37,124.77 110.92,120.14 110.47,115.52 109.74,108.57 109.02,101.62 108.45,91.39 107.88,81.16 107.66,70.76 107.45,60.36 107.66,51.01 107.88,41.66 107.98,34.00 108.09,26.33 107.86,20.84 107.63,15.35 107.25,11.03 106.88,6.71 106.63,2.78 106.39,-1.15 106.22,-4.84 106.05,-8.53 106.14,-11.70 106.23,-14.86 106.25,-17.46 106.27,-20.05 106.40,-20.63 106.53,-21.21 106.84,-21.71 107.15,-22.22 107.60,-22.60 108.06,-22.98 108.61,-23.20 109.16,-23.41 109.75,-23.44 110.34,-23.47 110.91,-23.31 111.48,-23.15 111.97,-22.81 112.46,-22.48 112.81,-22.01 113.17,-21.53 113.35,-20.97 113.54,-20.41 113.54,-19.82 113.53,-19.22 113.34,-18.66 113.15,-18.10 112.79,-17.64 112.43,-17.17 111.94,-16.84 111.45,-16.51 110.87,-16.35 110.30,-16.20 109.71,-16.23 109.12,-16.27 108.57,-16.49 108.02,-16.71 107.58,-17.10 107.13,-17.48 106.82,-17.99 106.52,-18.50 106.40,-19.08 106.27,-19.66 106.34,-20.24 106.41,-20.83 106.66,-21.37 106.91,-21.90 107.32,-22.33 107.73,-22.76 108.25,-23.03 108.78,-23.31 109.36,-23.40 109.95,-23.49 110.53,-23.39 111.11,-23.30 111.63,-23.02 112.16,-22.74 112.56,-22.30 112.97,-21.87 113.21,-21.33 113.46,-20.80 113.52,-20.21 113.58,-19.62 113.58,-19.62 113.58,-19.62 113.29,-16.95 113.00,-14.28 112.58,-11.46 112.15,-8.64 112.13,-5.02 112.10,-1.39 112.19,2.41 112.29,6.22 112.70,10.66 113.12,15.09 113.40,20.74 113.69,26.38 113.64,34.07 113.60,41.77 113.48,50.99 113.35,60.21 113.68,70.49 114.01,80.77 114.73,90.81 115.45,100.84 116.40,107.73 117.35,114.63 118.14,119.57 118.93,124.52 118.62,128.57 118.31,132.62 116.16,134.43 114.01,136.23 110.12,136.01 106.23,135.79 100.53,135.13 94.83,134.48 86.86,133.58 78.88,132.67 70.36,131.85 61.85,131.02 53.09,131.02 44.33,131.01 36.50,131.56 28.67,132.10 22.12,133.26 15.57,134.42 10.55,133.62 5.53,132.82 5.46,133.37 5.40,133.91 5.21,134.42 5.01,134.93 4.70,135.38 4.40,135.83 3.99,136.20 3.58,136.56 3.10,136.82 2.61,137.07 2.08,137.20 1.55,137.34 1.01,137.34 0.46,137.34 -0.06,137.21 -0.59,137.08 -1.08,136.83 -1.56,136.58 -1.97,136.21 -2.38,135.85 -2.69,135.40 -3.01,134.95 -3.20,134.44 -3.40,133.93 -3.46,133.39 -3.53,132.85 -3.29,130.90 -3.06,128.96 -2.71,125.66 -2.36,122.35 -2.17,119.86 -1.98,117.37 -1.99,113.53 -2.01,109.69 -2.25,104.04 -2.49,98.40 -3.06,90.98 -3.63,83.57 -3.60,75.83 -3.56,68.10 -3.46,60.05 -3.36,52.00 -3.10,44.70 -2.85,37.39 -2.89,30.21 -2.93,23.04 -2.99,16.98 -3.05,10.92 -3.13,5.46 -3.21,0 -3.17,-0.38 -3.12,-0.76 -2.98,-1.13 -2.84,-1.49 -2.62,-1.81 -2.40,-2.13 -2.11,-2.39 -1.82,-2.64 -1.48,-2.82 -1.14,-3.00 -0.76,-3.10 -0.38,-3.19 0.00,-3.19 0.38,-3.19 0.76,-3.10 1.14,-3.00 1.48,-2.82 1.82,-2.64 2.11,-2.39 2.40,-2.13 2.62,-1.81 2.84,-1.49 2.98,-1.13 3.12,-0.76 3.17,-0.38 3.21,0.00 3.21,0.00 L 3.21,0 Z"></path></g><g transform="translate(566 543) rotate(0 -1.5 -7.5)" stroke="none"><path fill="#1e1e1e" d="M -4.90,-1.96 Q -4.90,-1.96 -4.40,-3.41 -3.90,-4.86 -4.76,-6.97 -5.62,-9.07 -3.01,-11.47 -0.40,-13.87 0.78,-10.06 1.96,-6.25 0.93,-6.63 -0.09,-7.02 -0.95,-7.72 -1.81,-8.41 -2.39,-9.35 -2.98,-10.28 -3.24,-11.35 -3.50,-12.42 -3.41,-13.52 -3.31,-14.62 -2.87,-15.63 -2.43,-16.64 -1.69,-17.46 -0.94,-18.28 0.01,-18.82 0.97,-19.35 2.06,-19.55 3.14,-19.76 4.24,-19.60 5.33,-19.44 6.31,-18.95 7.30,-18.45 8.07,-17.67 8.85,-16.88 9.33,-15.89 9.82,-14.90 9.96,-13.81 10.10,-12.71 9.89,-11.63 9.68,-10.55 9.13,-9.59 8.58,-8.63 7.75,-7.90 6.93,-7.17 5.91,-6.74 4.89,-6.31 3.79,-6.23 2.69,-6.14 1.62,-6.42 0.55,-6.69 -0.36,-7.29 -1.29,-7.89 -1.97,-8.75 -2.66,-9.62 -3.03,-10.65 -3.41,-11.69 -3.43,-12.80 -3.45,-13.90 -3.12,-14.95 -2.79,-16.00 -2.14,-16.90 -1.50,-17.79 -0.60,-18.43 0.29,-19.07 1.35,-19.38 2.41,-19.70 3.51,-19.66 4.61,-19.63 4.61,-19.63 4.61,-19.63 8.68,-15.89 12.75,-12.16 12.20,-9.77 11.66,-7.37 9.87,-5.23 8.08,-3.08 4.80,-1.50 1.52,0.08 -1.11,0.86 -3.76,1.64 -7.25,1.07 -10.75,0.51 -13.17,-2.33 -15.59,-5.19 -15.23,-9.33 -14.88,-13.47 -13.10,-15.98 -11.33,-18.49 -9.06,-19.55 -6.78,-20.60 -3.48,-19.72 -0.17,-18.85 2.45,-16.42 5.09,-13.99 5.99,-11.81 6.89,-9.63 6.55,-5.25 6.20,-0.88 5.55,0.53 4.90,1.96 4.59,2.51 4.28,3.07 3.85,3.54 3.42,4.01 2.89,4.36 2.36,4.71 1.76,4.93 1.17,5.14 0.53,5.21 -0.09,5.27 -0.72,5.18 -1.35,5.10 -1.94,4.86 -2.53,4.62 -3.05,4.25 -3.57,3.88 -3.98,3.40 -4.39,2.91 -4.68,2.35 -4.96,1.78 -5.10,1.16 -5.25,0.54 -5.23,-0.09 -5.22,-0.73 -5.06,-1.34 -4.90,-1.96 -4.90,-1.96 L -4.90,-1.96 Z"></path></g><g transform="translate(562 539) rotate(0 4.5 45.5)" stroke="none"><path fill="#1e1e1e" d="M 4.03,-3.22 Q 4.03,-3.22 6.20,-0.24 8.36,2.73 9.80,4.65 11.24,6.56 12.20,9.17 13.16,11.79 13.52,14.46 13.88,17.14 14.05,19.39 14.21,21.63 14.06,25.96 13.92,30.30 13.51,33.13 13.10,35.97 12.74,38.63 12.38,41.29 11.97,44.43 11.55,47.56 10.61,51.04 9.68,54.51 9.18,57.75 8.69,60.98 8.59,63.25 8.49,65.52 8.14,68.48 7.79,71.45 7.72,73.76 7.64,76.06 7.65,78.66 7.65,81.26 7.86,83.46 8.08,85.66 7.58,85.62 7.08,85.58 7.81,86.40 8.54,87.22 8.96,88.23 9.39,89.24 9.47,90.34 9.56,91.43 9.28,92.49 9.01,93.56 8.42,94.48 7.82,95.40 6.96,96.08 6.10,96.76 5.07,97.13 4.03,97.50 2.94,97.53 1.84,97.55 0.79,97.22 -0.24,96.89 -1.13,96.25 -2.02,95.60 -2.65,94.70 -3.28,93.81 -3.60,92.76 -3.91,91.71 -3.88,90.61 -3.84,89.51 -3.46,88.49 -3.07,87.46 -2.38,86.61 -1.68,85.76 -0.76,85.17 0.16,84.59 1.23,84.33 2.30,84.07 3.39,84.17 4.48,84.27 5.49,84.71 6.49,85.15 7.30,85.89 8.11,86.62 8.65,87.58 9.18,88.54 9.38,89.62 9.58,90.70 9.42,91.78 9.27,92.87 8.78,93.85 8.28,94.83 7.50,95.60 6.72,96.37 5.73,96.85 4.75,97.33 3.66,97.47 2.57,97.61 1.50,97.40 0.42,97.19 -0.52,96.64 -1.47,96.09 -1.47,96.09 -1.47,96.09 -3.20,92.71 -4.93,89.33 -5.30,86.34 -5.67,83.36 -5.61,81.03 -5.56,78.69 -5.44,75.50 -5.33,72.30 -4.87,69.74 -4.42,67.18 -4.25,64.61 -4.07,62.05 -3.50,58.84 -2.93,55.62 -2.13,51.81 -1.34,47.99 -0.60,45.10 0.13,42.20 0.71,39.29 1.29,36.37 2.08,32.47 2.87,28.57 3.18,25.35 3.49,22.13 3.37,18.34 3.24,14.55 2.04,11.65 0.83,8.76 -1.60,5.99 -4.03,3.22 -4.36,2.69 -4.69,2.16 -4.88,1.57 -5.07,0.98 -5.11,0.36 -5.16,-0.25 -5.05,-0.87 -4.95,-1.48 -4.70,-2.05 -4.45,-2.62 -4.07,-3.12 -3.69,-3.61 -3.20,-4.00 -2.71,-4.39 -2.15,-4.65 -1.58,-4.91 -0.97,-5.03 -0.36,-5.15 0.25,-5.12 0.88,-5.09 1.47,-4.91 2.07,-4.73 2.61,-4.41 3.14,-4.10 3.59,-3.66 4.03,-3.22 4.03,-3.22 L 4.03,-3.22 Z"></path></g><g transform="translate(684 351) rotate(0 -75 122.5)" stroke="none"><path fill="#1e1e1e" d="M 5.18,-0.51 Q 5.18,-0.51 5.44,2.36 5.70,5.24 5.58,8.05 5.46,10.85 5.42,13.19 5.38,15.54 5.08,18.03 4.78,20.53 4.38,22.77 3.98,25.00 3.15,29.02 2.32,33.04 1.72,35.97 1.11,38.90 0.67,41.48 0.23,44.06 -0.19,47.02 -0.62,49.97 -1.01,53.83 -1.41,57.69 -1.89,60.77 -2.37,63.85 -4.67,67.02 -6.97,70.18 -9.42,71.07 -11.88,71.97 -16.23,72.40 -20.58,72.83 -25.50,73.00 -30.42,73.17 -36.07,73.11 -41.73,73.04 -47.17,73.19 -52.61,73.34 -57.61,73.34 -62.60,73.33 -66.74,73.31 -70.87,73.29 -74.07,73.43 -77.26,73.57 -80.05,73.72 -82.85,73.87 -84.94,74.29 -87.02,74.72 -89.34,75.23 -91.67,75.74 -94.95,75.97 -98.24,76.19 -101.62,76.25 -105.01,76.30 -108.74,76.24 -112.48,76.17 -116.37,76.07 -120.25,75.97 -123.92,75.94 -127.58,75.90 -131.15,75.89 -134.72,75.88 -137.67,75.98 -140.63,76.07 -143.81,76.19 -146.99,76.31 -145.82,78.29 -144.64,80.28 -144.91,84.57 -145.17,88.86 -145.56,91.01 -145.96,93.16 -146.44,97.48 -146.91,101.80 -147.42,105.07 -147.93,108.34 -147.84,110.98 -147.75,113.62 -142.65,114.83 -137.55,116.04 -132.37,116.22 -127.19,116.40 -120.80,116.60 -114.41,116.81 -107.76,116.71 -101.11,116.62 -94.75,116.64 -88.39,116.67 -82.16,117.02 -75.93,117.37 -70.20,117.56 -64.47,117.75 -59.08,118.14 -53.68,118.54 -48.80,119.02 -43.91,119.49 -39.62,119.71 -35.33,119.92 -31.77,119.88 -28.22,119.84 -25.56,119.67 -22.90,119.50 -19.97,119.59 -17.04,119.68 -14.68,119.41 -12.31,119.14 -9.96,119.55 -7.62,119.95 -5.07,120.03 -2.52,120.11 1.24,120.69 5.01,121.27 7.37,124.71 9.73,128.16 9.55,131.19 9.38,134.22 8.70,138.04 8.02,141.87 7.22,147.72 6.42,153.57 5.66,159.81 4.90,166.05 5.07,172.77 5.23,179.48 5.24,185.67 5.24,191.85 5.25,195.91 5.25,199.97 5.40,203.13 5.55,206.30 5.72,208.80 5.90,211.29 6.21,214.90 6.53,218.51 6.74,220.86 6.96,223.22 7.70,225.61 8.44,227.99 8.07,231.21 7.71,234.42 7.49,236.85 7.27,239.28 6.71,242.33 6.16,245.37 5.84,246.32 5.53,247.26 4.93,248.05 4.34,248.85 3.52,249.41 2.70,249.97 1.74,250.24 0.78,250.51 -0.20,250.46 -1.19,250.42 -2.12,250.05 -3.04,249.69 -3.80,249.05 -4.56,248.41 -5.08,247.56 -5.60,246.71 -5.82,245.74 -6.03,244.77 -5.93,243.78 -5.83,242.79 -5.42,241.89 -5.00,240.99 -4.32,240.26 -3.64,239.54 -2.77,239.07 -1.89,238.60 -0.91,238.43 0.06,238.27 1.04,238.42 2.02,238.58 2.90,239.04 3.78,239.50 4.47,240.22 5.16,240.94 5.58,241.84 6.00,242.74 6.11,243.72 6.22,244.71 6.02,245.68 5.81,246.66 5.30,247.51 4.79,248.36 4.04,249.01 3.28,249.66 2.36,250.03 1.44,250.40 0.45,250.46 -0.54,250.52 -1.50,250.26 -2.46,250.00 -3.28,249.44 -4.11,248.89 -4.71,248.10 -5.32,247.31 -5.64,246.37 -5.96,245.43 -5.96,244.44 -5.97,243.44 -5.97,243.44 -5.97,243.45 -5.41,240.79 -4.84,238.14 -4.25,235.51 -3.65,232.88 -3.04,230.29 -2.43,227.69 -2.69,225.57 -2.96,223.45 -2.75,220.98 -2.53,218.52 -2.23,214.93 -1.94,211.33 -1.78,208.85 -1.63,206.36 -1.54,203.22 -1.45,200.08 -1.58,196.05 -1.71,192.03 -2.02,185.96 -2.34,179.89 -2.92,172.66 -3.50,165.42 -3.30,159.14 -3.10,152.86 -3.01,146.84 -2.93,140.81 -2.62,136.15 -2.31,131.48 -4.50,130.91 -6.68,130.34 -9.55,129.58 -12.41,128.82 -15.09,128.42 -17.77,128.02 -20.38,127.21 -22.99,126.39 -25.67,126.16 -28.35,125.92 -31.96,125.73 -35.56,125.53 -39.99,125.38 -44.42,125.23 -49.24,124.86 -54.05,124.48 -59.31,124.22 -64.57,123.96 -70.38,123.95 -76.18,123.94 -82.21,123.83 -88.24,123.73 -94.49,124.03 -100.74,124.33 -107.51,124.88 -114.29,125.42 -120.56,125.80 -126.83,126.18 -132.49,126.75 -138.15,127.32 -142.57,127.42 -146.99,127.51 -150.13,126.93 -153.27,126.36 -155.82,124.73 -158.37,123.10 -159.33,119.00 -160.28,114.91 -160.11,112.08 -159.93,109.25 -159.20,106.55 -158.46,103.85 -157.87,100.01 -157.28,96.18 -156.60,91.69 -155.91,87.20 -155.46,83.45 -155.01,79.70 -154.78,77.35 -154.55,74.99 -153.59,72.55 -152.62,70.11 -150.63,68.90 -148.64,67.68 -144.63,67.80 -140.63,67.92 -137.68,68.01 -134.72,68.10 -131.16,68.09 -127.59,68.07 -123.94,68.03 -120.28,67.98 -116.42,67.85 -112.55,67.73 -108.88,67.60 -105.21,67.47 -101.98,67.37 -98.75,67.28 -95.94,67.16 -93.14,67.03 -90.60,66.72 -88.06,66.41 -85.48,66.25 -82.89,66.08 -80.11,66.21 -77.33,66.33 -74.16,66.41 -70.99,66.50 -66.91,66.34 -62.84,66.18 -58.00,65.84 -53.16,65.51 -47.63,64.89 -42.10,64.27 -36.82,63.75 -31.55,63.22 -26.97,62.31 -22.40,61.40 -18.50,60.93 -14.60,60.47 -14.13,57.92 -13.65,55.38 -13.28,52.14 -12.92,48.89 -12.66,46.66 -12.40,44.44 -11.78,41.87 -11.16,39.31 -10.42,36.42 -9.67,33.52 -9.03,31.44 -8.39,29.35 -7.56,26.09 -6.73,22.83 -5.95,19.03 -5.18,15.22 -4.86,10.73 -4.55,6.25 -4.86,3.38 -5.18,0.51 -5.16,-0.10 -5.15,-0.73 -4.99,-1.34 -4.82,-1.94 -4.52,-2.49 -4.22,-3.04 -3.79,-3.50 -3.36,-3.96 -2.84,-4.31 -2.32,-4.66 -1.72,-4.87 -1.13,-5.08 -0.51,-5.14 0.11,-5.20 0.73,-5.11 1.35,-5.02 1.93,-4.79 2.51,-4.55 3.02,-4.19 3.53,-3.82 3.94,-3.34 4.34,-2.86 4.62,-2.30 4.90,-1.74 5.04,-1.12 5.18,-0.51 5.18,-0.51 L 5.18,-0.51 Z"></path></g><g transform="translate(79 1256) rotate(0 37 42)" stroke="none"><path fill="#1e1e1e" d="M 3.35,0.27 Q 3.35,0.27 2.67,7.17 2.00,14.06 0.81,21.96 -0.37,29.86 -1.76,38.09 -3.15,46.32 -4.33,54.38 -5.50,62.43 -6.30,69.00 -7.10,75.56 -7.32,79.21 -7.55,82.86 -7.59,83.27 -7.64,83.67 -7.72,84.04 -7.80,84.42 -7.97,84.76 -8.13,85.10 -8.38,85.39 -8.62,85.69 -8.93,85.91 -9.23,86.14 -9.59,86.29 -9.94,86.43 -10.31,86.49 -10.69,86.55 -11.07,86.51 -11.45,86.48 -11.81,86.36 -12.17,86.23 -12.49,86.03 -12.81,85.82 -13.07,85.54 -13.33,85.27 -13.52,84.93 -13.71,84.60 -13.81,84.24 -13.91,83.87 -13.92,83.49 -13.93,83.11 -12.98,78.57 -12.02,74.02 -9.90,65.73 -7.78,57.44 -5.73,48.25 -3.69,39.06 -0.78,28.18 2.11,17.30 5.07,6.37 8.04,-4.55 11.96,-13.14 15.89,-21.73 19.37,-25.83 22.84,-29.92 26.21,-29.35 29.58,-28.77 31.90,-22.53 34.22,-16.28 34.99,-6.93 35.77,2.41 36.06,12.07 36.35,21.73 37.03,29.46 37.71,37.20 38.23,39.92 38.75,42.64 38.74,43.03 38.73,43.42 38.63,43.79 38.52,44.17 38.33,44.51 38.14,44.85 37.88,45.13 37.61,45.41 37.28,45.62 36.96,45.83 36.59,45.96 36.22,46.09 35.84,46.12 35.45,46.16 35.07,46.10 34.68,46.04 34.32,45.89 33.97,45.74 33.65,45.51 33.34,45.28 33.09,44.99 32.84,44.69 32.67,44.34 32.50,43.99 32.42,43.61 32.34,43.23 34.57,37.83 36.80,32.44 39.28,27.07 41.76,21.71 46.08,14.95 50.41,8.20 55.27,3.18 60.12,-1.83 63.82,-4.21 67.52,-6.58 70.96,-6.05 74.40,-5.51 76.85,-1.18 79.31,3.14 80.41,10.05 81.51,16.95 82.19,26.15 82.88,35.35 83.43,45.85 83.98,56.36 84.49,67.14 85.00,77.93 85.78,87.35 86.55,96.77 86.88,102.56 87.21,108.35 87.07,107.90 86.94,107.46 86.92,107.81 86.89,108.16 86.79,108.49 86.69,108.83 86.50,109.13 86.32,109.43 86.07,109.67 85.83,109.92 85.52,110.10 85.22,110.28 84.89,110.39 84.55,110.49 84.20,110.51 83.85,110.53 83.51,110.47 83.16,110.41 82.84,110.26 82.53,110.12 82.25,109.90 81.97,109.69 81.76,109.41 81.54,109.13 81.40,108.81 81.25,108.49 81.19,108.15 81.13,107.80 81.18,107.33 81.22,106.87 81.42,106.44 81.62,106.01 81.94,105.67 82.26,105.32 82.67,105.10 83.09,104.88 83.55,104.80 84.02,104.72 84.48,104.79 84.95,104.87 85.36,105.09 85.78,105.30 86.11,105.64 86.43,105.98 86.63,106.41 86.83,106.84 86.89,107.30 86.94,107.77 86.84,108.23 86.74,108.69 86.50,109.10 86.26,109.50 85.90,109.81 85.55,110.11 85.11,110.29 84.67,110.47 84.20,110.50 83.73,110.52 83.28,110.40 82.83,110.28 82.43,110.01 82.04,109.75 81.76,109.38 81.47,109.01 81.32,108.56 81.16,108.12 81.16,107.64 81.16,107.17 81.31,106.73 81.45,106.28 81.74,105.90 82.02,105.53 82.41,105.26 82.80,105.00 83.25,104.87 83.70,104.74 84.17,104.76 84.64,104.78 85.08,104.96 85.52,105.13 85.88,105.43 86.24,105.73 86.49,106.14 86.73,106.54 86.83,107.00 86.94,107.46 86.94,107.46 86.94,107.46 86.92,107.81 86.89,108.16 86.79,108.49 86.69,108.83 86.50,109.13 86.32,109.43 86.07,109.67 85.83,109.92 85.53,110.10 85.22,110.28 84.89,110.39 84.55,110.49 84.20,110.51 83.85,110.53 83.51,110.47 83.16,110.41 82.85,110.26 82.53,110.12 82.25,109.90 81.97,109.69 81.76,109.41 81.54,109.13 81.40,108.81 81.25,108.49 81.19,108.15 81.13,107.80 81.45,108.23 81.77,108.65 81.41,102.94 81.05,97.24 80.22,87.72 79.39,78.21 78.81,67.45 78.23,56.69 77.59,46.26 76.94,35.83 76.16,26.89 75.38,17.95 74.38,11.94 73.38,5.94 71.30,2.28 69.22,-1.36 66.66,0.34 64.11,2.06 59.65,6.66 55.20,11.27 51.15,17.70 47.10,24.12 44.76,29.47 42.41,34.82 40.58,38.73 38.75,42.64 38.74,43.03 38.73,43.42 38.63,43.79 38.52,44.17 38.33,44.51 38.14,44.85 37.88,45.13 37.61,45.41 37.28,45.62 36.96,45.83 36.59,45.96 36.22,46.09 35.84,46.12 35.45,46.16 35.07,46.10 34.68,46.04 34.32,45.89 33.97,45.74 33.65,45.51 33.34,45.28 33.09,44.99 32.84,44.69 32.67,44.34 32.50,43.99 32.42,43.61 32.34,43.23 32.26,40.47 32.17,37.70 31.43,29.81 30.68,21.92 30.32,12.41 29.96,2.90 29.20,-5.79 28.45,-14.48 26.11,-20.01 23.77,-25.54 22.26,-22.51 20.75,-19.48 17.00,-11.31 13.24,-3.14 10.31,7.78 7.38,18.70 4.54,29.47 1.69,40.24 -0.31,49.53 -2.32,58.81 -4.33,66.93 -6.35,75.05 -6.99,79.36 -7.64,83.67 -7.72,84.04 -7.80,84.42 -7.97,84.76 -8.13,85.10 -8.38,85.39 -8.62,85.69 -8.93,85.91 -9.23,86.14 -9.58,86.29 -9.94,86.43 -10.31,86.49 -10.69,86.55 -11.07,86.51 -11.45,86.48 -11.81,86.36 -12.17,86.23 -12.49,86.03 -12.81,85.82 -13.07,85.54 -13.33,85.27 -13.52,84.93 -13.70,84.60 -13.81,84.24 -13.91,83.87 -13.92,83.49 -13.93,83.11 -13.70,82.70 -13.47,82.29 -13.04,78.60 -12.61,74.91 -11.86,68.28 -11.11,61.64 -10.00,53.52 -8.90,45.39 -7.62,37.20 -6.35,29.01 -5.32,21.27 -4.30,13.53 -3.82,6.62 -3.35,-0.27 -3.26,-0.67 -3.18,-1.07 -3.01,-1.43 -2.83,-1.80 -2.57,-2.11 -2.32,-2.43 -1.99,-2.67 -1.67,-2.91 -1.30,-3.07 -0.92,-3.23 -0.52,-3.29 -0.12,-3.35 0.27,-3.32 0.68,-3.29 1.06,-3.16 1.44,-3.03 1.79,-2.81 2.13,-2.59 2.41,-2.30 2.69,-2.01 2.89,-1.66 3.09,-1.30 3.20,-0.91 3.31,-0.53 3.33,-0.12 3.35,0.27 3.35,0.27 L 3.35,0.27 Z"></path></g><g transform="translate(195 1341) rotate(0 5.5 0)" stroke="none"><path fill="#1e1e1e" d="M -2.35,-4.71 Q -2.35,-4.71 -0.06,-5.87 2.22,-7.02 4.36,-8.82 6.50,-10.62 6.71,-13.39 6.93,-16.17 4.60,-17.61 2.26,-19.06 0.28,-17.71 -1.69,-16.36 -4.56,-12.89 -7.43,-9.42 -11.26,-4.39 -15.10,0.64 -17.84,5.68 -20.58,10.73 -21.96,13.83 -23.35,16.93 -17.29,18.12 -11.22,19.31 -5.02,19.11 1.17,18.90 7.07,17.49 12.96,16.08 18.23,13.88 23.49,11.68 26.85,8.18 30.20,4.68 32.16,0.56 34.13,-3.54 34.98,-7.72 35.84,-11.89 36.01,-14.43 36.18,-16.97 36.30,-17.35 36.43,-17.73 36.64,-18.07 36.86,-18.40 37.14,-18.68 37.43,-18.95 37.78,-19.15 38.12,-19.35 38.50,-19.46 38.89,-19.57 39.28,-19.59 39.68,-19.60 40.07,-19.52 40.46,-19.44 40.82,-19.27 41.18,-19.10 41.49,-18.85 41.80,-18.59 42.04,-18.28 42.28,-17.96 42.43,-17.59 42.59,-17.22 42.65,-16.83 42.71,-16.44 42.68,-16.04 42.65,-15.64 42.16,-10.22 41.67,-4.79 40.86,0.47 40.06,5.73 39.72,9.85 39.37,13.97 39.74,16.41 40.11,18.86 41.29,20.95 42.47,23.03 42.83,23.54 43.18,24.05 43.36,24.65 43.53,25.24 43.51,25.86 43.48,26.49 43.26,27.07 43.04,27.65 42.64,28.13 42.25,28.60 41.72,28.93 41.19,29.26 40.59,29.40 39.98,29.54 39.36,29.49 38.75,29.43 38.18,29.18 37.61,28.92 37.15,28.50 36.70,28.08 36.40,27.54 36.10,26.99 35.99,26.38 35.88,25.77 35.97,25.15 36.06,24.54 36.35,23.99 36.63,23.43 37.08,23.00 37.52,22.57 38.08,22.30 38.64,22.03 39.26,21.95 39.87,21.88 40.48,22.00 41.09,22.13 41.63,22.44 42.16,22.75 42.57,23.22 42.98,23.69 43.22,24.26 43.46,24.83 43.50,25.45 43.54,26.07 43.39,26.68 43.23,27.28 42.89,27.80 42.55,28.31 42.06,28.70 41.57,29.08 40.98,29.29 40.40,29.49 39.77,29.50 39.15,29.51 38.56,29.32 37.97,29.13 37.47,28.76 36.97,28.39 36.97,28.39 36.97,28.39 35.19,23.84 33.41,19.28 33.47,16.41 33.52,13.55 33.79,9.23 34.05,4.90 34.69,-0.20 35.32,-5.32 35.75,-11.15 36.18,-16.97 36.30,-17.35 36.43,-17.73 36.64,-18.07 36.86,-18.40 37.14,-18.68 37.43,-18.95 37.78,-19.15 38.12,-19.35 38.50,-19.46 38.89,-19.57 39.28,-19.59 39.68,-19.60 40.07,-19.52 40.46,-19.44 40.82,-19.27 41.18,-19.10 41.49,-18.85 41.80,-18.60 42.04,-18.28 42.28,-17.96 42.43,-17.59 42.59,-17.22 42.65,-16.83 42.71,-16.44 42.68,-16.04 42.65,-15.64 42.03,-13.20 41.41,-10.75 40.41,-5.90 39.41,-1.05 37.01,3.89 34.62,8.83 30.41,13.13 26.20,17.43 20.44,20.04 14.68,22.66 8.16,24.46 1.65,26.26 -5.11,26.85 -11.88,27.43 -17.63,27.13 -23.38,26.82 -26.81,25.04 -30.25,23.26 -31.07,20.90 -31.89,18.53 -31.14,16.13 -30.40,13.73 -28.92,10.51 -27.44,7.30 -24.78,1.54 -22.12,-4.20 -18.67,-9.70 -15.22,-15.19 -11.77,-20.26 -8.31,-25.34 -4.17,-27.84 -0.04,-30.35 3.82,-29.95 7.69,-29.55 10.43,-27.94 13.16,-26.33 15.22,-23.83 17.27,-21.32 17.70,-16.39 18.13,-11.46 17.50,-9.28 16.86,-7.11 13.81,-3.53 10.77,0.04 8.87,1.23 6.97,2.42 4.66,3.57 2.35,4.71 1.75,4.92 1.16,5.14 0.52,5.20 -0.10,5.27 -0.73,5.18 -1.36,5.09 -1.95,4.85 -2.54,4.61 -3.05,4.24 -3.57,3.87 -3.98,3.39 -4.39,2.90 -4.68,2.34 -4.96,1.77 -5.10,1.15 -5.24,0.53 -5.23,-0.10 -5.22,-0.73 -5.05,-1.35 -4.89,-1.96 -4.58,-2.52 -4.27,-3.08 -3.84,-3.54 -3.41,-4.01 -2.88,-4.36 -2.35,-4.71 -2.35,-4.71 L -2.35,-4.71 Z"></path></g><g transform="translate(266 1320) rotate(0 35.5 21.5)" stroke="none"><path fill="#1e1e1e" d="M 3.45,-0.79 Q 3.45,-0.79 4.29,2.94 5.13,6.68 5.70,11.91 6.27,17.13 6.47,23.14 6.67,29.16 6.73,34.57 6.78,39.99 6.91,43.72 7.03,47.45 7.08,47.59 7.13,47.74 7.09,48.12 7.05,48.50 6.92,48.86 6.79,49.22 6.58,49.54 6.37,49.85 6.08,50.11 5.80,50.37 5.46,50.55 5.13,50.73 4.76,50.83 4.39,50.92 4.01,50.93 3.62,50.94 3.25,50.85 2.88,50.76 2.54,50.59 2.20,50.42 1.91,50.17 1.62,49.92 1.40,49.61 1.18,49.29 1.03,48.94 0.89,48.58 0.84,48.20 0.79,47.82 0.65,44.98 0.50,42.14 0.62,37.79 0.74,33.43 1.12,27.48 1.49,21.53 2.26,14.93 3.03,8.32 4.54,0.83 6.05,-6.65 8.19,-12.57 10.33,-18.48 11.71,-21.93 13.10,-25.38 14.47,-27.36 15.84,-29.35 18.62,-30.58 21.40,-31.81 25.21,-30.99 29.03,-30.17 33.11,-27.74 37.18,-25.30 41.33,-21.49 45.47,-17.67 48.99,-13.02 52.51,-8.37 54.65,-3.58 56.78,1.21 57.46,5.32 58.14,9.44 55.55,13.22 52.96,16.99 47.68,19.66 42.39,22.34 36.34,23.95 30.29,25.57 25.52,26.77 20.75,27.97 18.33,28.43 15.91,28.90 18.84,31.54 21.77,34.18 26.31,37.69 30.85,41.20 36.28,45.36 41.71,49.52 47.68,53.56 53.64,57.60 58.23,60.80 62.81,64.00 65.56,65.41 68.30,66.82 67.56,64.56 66.82,62.31 67.02,61.68 67.22,61.05 67.61,60.51 68.00,59.98 68.55,59.60 69.09,59.22 69.72,59.04 70.36,58.85 71.02,58.88 71.68,58.90 72.30,59.14 72.91,59.37 73.43,59.79 73.94,60.22 74.28,60.78 74.63,61.34 74.79,61.98 74.94,62.63 74.88,63.28 74.81,63.94 74.55,64.55 74.28,65.15 73.83,65.64 73.38,66.12 72.80,66.44 72.22,66.76 71.57,66.88 70.92,66.99 70.27,66.90 69.61,66.80 69.02,66.50 68.43,66.20 67.97,65.72 67.51,65.25 67.22,64.65 66.94,64.06 66.86,63.40 66.77,62.75 66.91,62.10 67.04,61.45 67.37,60.88 67.71,60.31 68.20,59.87 68.70,59.44 69.31,59.18 69.92,58.93 70.58,58.88 71.24,58.84 71.88,59.01 72.52,59.17 73.07,59.54 73.63,59.90 74.03,60.42 74.44,60.94 74.66,61.56 74.88,62.19 74.89,62.85 74.90,63.51 74.90,63.51 74.90,63.51 73.26,67.56 71.62,71.61 68.50,71.98 65.37,72.36 62.49,70.51 59.61,68.66 55.02,65.54 50.42,62.43 44.26,58.38 38.10,54.33 32.59,50.28 27.07,46.24 22.09,42.61 17.12,38.98 13.62,35.17 10.12,31.36 10.78,28.59 11.44,25.82 15.35,24.08 19.27,22.34 23.98,21.05 28.70,19.76 34.15,18.21 39.59,16.67 43.78,14.62 47.97,12.57 50.07,10.65 52.16,8.72 51.71,6.19 51.25,3.66 49.36,-0.41 47.47,-4.50 44.21,-8.56 40.95,-12.62 37.27,-15.77 33.59,-18.91 28.22,-21.67 22.85,-24.42 20.73,-23.65 18.61,-22.88 17.10,-19.73 15.60,-16.59 13.63,-11.07 11.67,-5.54 10.28,1.70 8.90,8.95 8.27,15.39 7.64,21.83 7.44,27.64 7.24,33.44 7.35,37.80 7.46,42.17 7.30,44.95 7.13,47.74 7.09,48.12 7.05,48.50 6.92,48.86 6.79,49.22 6.58,49.54 6.37,49.85 6.08,50.11 5.80,50.37 5.46,50.55 5.13,50.73 4.76,50.83 4.39,50.92 4.01,50.93 3.62,50.94 3.25,50.85 2.88,50.76 2.54,50.59 2.20,50.42 1.91,50.17 1.62,49.92 1.40,49.61 1.18,49.29 1.04,48.94 0.89,48.58 0.84,48.20 0.79,47.82 0.80,47.68 0.81,47.54 0.83,43.83 0.86,40.12 0.68,34.78 0.50,29.45 0.14,23.71 -0.20,17.97 -0.94,13.11 -1.68,8.26 -2.57,4.52 -3.45,0.79 -3.50,0.37 -3.54,-0.05 -3.49,-0.47 -3.43,-0.90 -3.27,-1.29 -3.11,-1.69 -2.87,-2.04 -2.62,-2.39 -2.29,-2.67 -1.97,-2.95 -1.59,-3.14 -1.20,-3.33 -0.79,-3.43 -0.37,-3.52 0.05,-3.52 0.48,-3.51 0.89,-3.40 1.30,-3.30 1.68,-3.09 2.05,-2.89 2.37,-2.60 2.69,-2.31 2.92,-1.95 3.16,-1.60 3.31,-1.20 3.45,-0.79 3.45,-0.79 L 3.45,-0.79 Z"></path></g><g transform="translate(363 1321) rotate(0 6 26)" stroke="none"><path fill="#1e1e1e" d="M 4.14,-0.75 Q 4.14,-0.75 4.73,2.40 5.33,5.56 5.94,10.72 6.55,15.88 7.04,21.29 7.53,26.71 8.24,31.18 8.95,35.65 10.12,39.10 11.30,42.54 12.27,44.54 13.25,46.54 13.92,47.88 14.60,49.22 14.92,49.74 15.24,50.27 15.37,50.86 15.50,51.46 15.44,52.07 15.37,52.68 15.12,53.24 14.86,53.79 14.44,54.24 14.02,54.68 13.48,54.97 12.94,55.26 12.34,55.36 11.73,55.46 11.13,55.36 10.52,55.27 9.98,54.98 9.44,54.70 9.02,54.25 8.59,53.81 8.34,53.25 8.08,52.70 8.01,52.09 7.94,51.48 8.07,50.88 8.20,50.28 8.52,49.76 8.83,49.23 9.30,48.83 9.76,48.44 10.33,48.21 10.90,47.98 11.51,47.95 12.12,47.91 12.71,48.07 13.30,48.24 13.81,48.58 14.32,48.92 14.69,49.41 15.06,49.89 15.26,50.47 15.46,51.05 15.46,51.67 15.46,52.28 15.27,52.86 15.07,53.44 14.70,53.93 14.33,54.42 13.83,54.76 13.32,55.11 12.73,55.27 12.14,55.44 11.53,55.41 10.92,55.38 10.35,55.15 9.78,54.92 9.31,54.53 8.84,54.13 8.84,54.13 8.84,54.13 7.60,51.64 6.36,49.15 5.72,46.88 5.08,44.61 3.81,40.73 2.54,36.85 1.56,32.20 0.58,27.54 -0.19,22.32 -0.98,17.09 -2.00,12.09 -3.03,7.08 -3.58,3.91 -4.14,0.75 -4.17,0.24 -4.20,-0.26 -4.10,-0.75 -4.01,-1.25 -3.80,-1.72 -3.59,-2.18 -3.28,-2.58 -2.97,-2.98 -2.57,-3.29 -2.17,-3.60 -1.70,-3.81 -1.24,-4.02 -0.74,-4.11 -0.24,-4.20 0.25,-4.17 0.76,-4.13 1.24,-3.98 1.73,-3.83 2.16,-3.57 2.60,-3.31 2.95,-2.95 3.31,-2.59 3.57,-2.15 3.84,-1.72 3.99,-1.23 4.14,-0.75 4.14,-0.75 L 4.14,-0.75 Z"></path></g><g transform="translate(449 1320) rotate(0 -10 24)" stroke="none"><path fill="#1e1e1e" d="M -3.57,0 Q -3.57,0 -3.50,-4.02 -3.43,-8.04 -8.44,-4.77 -13.46,-1.50 -17.93,4.26 -22.39,10.03 -27.25,17.36 -32.11,24.69 -35.89,31.73 -39.66,38.77 -41.23,43.27 -42.80,47.78 -42.49,50.20 -42.19,52.61 -40.43,53.89 -38.67,55.16 -34.74,56.38 -30.82,57.60 -25.17,58.27 -19.52,58.93 -12.90,58.69 -6.27,58.45 -0.43,57.26 5.39,56.06 10.20,53.69 15.01,51.32 17.91,47.52 20.81,43.71 21.72,37.88 22.63,32.05 21.41,25.47 20.18,18.90 17.52,13.71 14.85,8.53 10.82,5.40 6.78,2.28 2.29,0.07 -2.18,-2.13 -6.62,-3.65 -11.06,-5.16 -13.70,-5.91 -16.34,-6.65 -16.78,-6.47 -17.23,-6.29 -17.72,-6.13 -18.22,-5.97 -18.74,-5.97 -19.26,-5.98 -19.75,-6.15 -20.24,-6.32 -20.65,-6.64 -21.06,-6.95 -21.35,-7.39 -21.64,-7.82 -21.77,-8.32 -21.91,-8.83 -21.87,-9.35 -21.84,-9.86 -21.64,-10.35 -21.45,-10.83 -21.11,-11.22 -20.77,-11.61 -20.32,-11.88 -19.87,-12.14 -19.36,-12.25 -18.85,-12.36 -18.33,-12.29 -17.82,-12.23 -17.35,-12.01 -16.88,-11.79 -16.50,-11.43 -16.13,-11.07 -15.89,-10.60 -15.65,-10.14 -15.57,-9.63 -15.49,-9.11 -15.58,-8.60 -15.67,-8.09 -15.92,-7.63 -16.17,-7.17 -16.55,-6.82 -16.93,-6.46 -17.40,-6.25 -17.88,-6.04 -18.40,-5.99 -18.91,-5.93 -19.42,-6.05 -19.93,-6.17 -20.37,-6.44 -20.81,-6.71 -21.15,-7.11 -21.48,-7.51 -21.67,-8.00 -21.86,-8.48 -21.88,-9.00 -21.90,-9.52 -21.76,-10.02 -21.61,-10.52 -21.32,-10.95 -21.02,-11.38 -20.60,-11.69 -20.19,-12.00 -20.19,-12.00 -20.19,-12.00 -17.18,-12.25 -14.17,-12.51 -11.76,-11.34 -9.34,-10.17 -4.58,-8.53 0.17,-6.89 5.14,-4.38 10.11,-1.87 14.81,2.03 19.50,5.95 22.49,11.92 25.48,17.89 26.74,25.39 28.00,32.88 26.64,39.86 25.28,46.84 21.49,51.53 17.69,56.22 12.16,58.96 6.63,61.71 0.31,63.07 -6.00,64.43 -13.09,64.79 -20.18,65.15 -26.52,64.53 -32.85,63.90 -38.17,62.09 -43.50,60.28 -45.92,57.12 -48.33,53.96 -48.39,50.00 -48.45,46.05 -46.81,40.98 -45.16,35.90 -41.39,28.52 -37.62,21.14 -32.82,13.48 -28.03,5.82 -23.32,-0.69 -18.62,-7.20 -14.13,-11.36 -9.63,-15.52 -5.87,-16.39 -2.10,-17.26 0.39,-15.21 2.89,-13.17 3.16,-10.61 3.43,-8.05 3.50,-4.02 3.57,0 3.52,0.42 3.47,0.85 3.32,1.25 3.16,1.66 2.92,2.01 2.67,2.37 2.35,2.65 2.03,2.94 1.65,3.14 1.26,3.34 0.84,3.44 0.43,3.55 -0.00,3.55 -0.43,3.55 -0.85,3.44 -1.26,3.34 -1.65,3.14 -2.03,2.94 -2.35,2.65 -2.67,2.37 -2.92,2.01 -3.16,1.66 -3.32,1.25 -3.47,0.85 -3.52,0.42 -3.57,-0.00 -3.57,-0.00 L -3.57,0 Z"></path></g><g transform="translate(500 1272) rotate(0 38 34.5)" stroke="none"><path fill="#1e1e1e" d="M -2.00,-3.20 Q -2.00,-3.20 2.68,-5.94 7.37,-8.69 13.11,-10.82 18.86,-12.94 25.84,-13.84 32.82,-14.73 40.13,-14.77 47.44,-14.81 53.83,-13.93 60.23,-13.05 64.31,-11.79 68.39,-10.52 71.23,-8.38 74.06,-6.24 75.79,-2.81 77.52,0.62 77.35,4.70 77.18,8.78 75.06,12.59 72.93,16.40 69.75,19.27 66.57,22.13 62.43,24.41 58.29,26.69 54.36,28.95 50.43,31.22 46.23,34.11 42.04,37.01 38.29,40.17 34.55,43.34 31.89,46.10 29.23,48.87 28.14,51.07 27.05,53.26 27.29,55.58 27.54,57.89 30.11,60.56 32.68,63.23 35.28,67.38 37.88,71.54 40.39,74.40 42.89,77.25 43.32,77.99 43.75,78.72 43.92,79.56 44.09,80.39 43.99,81.23 43.88,82.07 43.52,82.84 43.15,83.61 42.56,84.22 41.96,84.82 41.21,85.21 40.45,85.60 39.61,85.73 38.77,85.85 37.93,85.70 37.10,85.55 36.35,85.15 35.61,84.74 35.03,84.11 34.46,83.49 34.11,82.71 33.76,81.94 33.68,81.09 33.60,80.24 33.80,79.42 33.99,78.59 34.44,77.87 34.89,77.14 35.54,76.60 36.20,76.06 36.99,75.76 37.78,75.46 38.63,75.42 39.48,75.39 40.30,75.63 41.11,75.86 41.81,76.35 42.51,76.84 43.01,77.52 43.52,78.20 43.78,79.01 44.04,79.82 44.03,80.67 44.01,81.52 43.73,82.32 43.45,83.12 42.93,83.79 42.40,84.46 41.69,84.93 40.98,85.40 40.16,85.61 39.34,85.83 38.49,85.77 37.64,85.71 36.86,85.39 36.07,85.06 35.43,84.50 34.79,83.94 34.79,83.94 34.79,83.95 32.07,80.48 29.35,77.01 27.65,74.41 25.95,71.82 24.21,68.72 22.48,65.63 21.01,62.66 19.54,59.70 19.41,57.34 19.29,54.98 20.28,52.37 21.28,49.76 23.12,47.24 24.95,44.73 27.84,41.82 30.73,38.91 34.62,35.48 38.51,32.05 42.81,28.91 47.11,25.76 50.99,23.28 54.87,20.80 58.30,18.69 61.72,16.57 64.16,14.51 66.60,12.44 68.21,10.07 69.83,7.69 70.35,5.33 70.88,2.97 70.18,0.72 69.48,-1.52 67.95,-3.29 66.42,-5.05 62.94,-6.22 59.46,-7.38 53.48,-8.15 47.50,-8.91 40.56,-8.78 33.63,-8.64 27.39,-7.76 21.15,-6.89 16.09,-4.84 11.02,-2.80 6.51,0.19 2.00,3.20 1.58,3.39 1.17,3.58 0.73,3.67 0.28,3.76 -0.17,3.74 -0.62,3.72 -1.06,3.59 -1.49,3.46 -1.89,3.23 -2.28,3.00 -2.61,2.68 -2.93,2.37 -3.17,1.98 -3.42,1.60 -3.56,1.16 -3.70,0.73 -3.73,0.28 -3.77,-0.17 -3.69,-0.62 -3.62,-1.06 -3.44,-1.48 -3.26,-1.90 -2.98,-2.26 -2.70,-2.63 -2.35,-2.91 -2.00,-3.20 -2.00,-3.20 L -2.00,-3.20 Z"></path></g><g transform="translate(536 1384) rotate(0 0.00005000000000165983 0.00004999999998744897)" stroke="none"><path fill="#1e1e1e" d="M 3.14,-3.14 Q 3.14,-3.14 3.55,-2.55 3.97,-1.97 4.18,-1.28 4.40,-0.59 4.38,0.11 4.36,0.83 4.11,1.51 3.86,2.18 3.41,2.74 2.96,3.30 2.36,3.69 1.75,4.07 1.05,4.25 0.36,4.42 -0.35,4.36 -1.07,4.30 -1.73,4.02 -2.39,3.74 -2.92,3.26 -3.46,2.78 -3.81,2.15 -4.16,1.53 -4.30,0.82 -4.43,0.11 -4.34,-0.59 -4.24,-1.30 -3.92,-1.94 -3.60,-2.59 -3.09,-3.09 -2.59,-3.60 -1.94,-3.92 -1.30,-4.24 -0.59,-4.34 0.12,-4.43 0.82,-4.30 1.53,-4.16 2.15,-3.81 2.78,-3.46 3.26,-2.92 3.74,-2.39 4.02,-1.73 4.31,-1.07 4.36,-0.35 4.42,0.36 4.25,1.05 4.07,1.75 3.69,2.36 3.30,2.96 2.74,3.41 2.18,3.86 1.51,4.11 0.83,4.36 0.11,4.38 -0.60,4.40 -1.28,4.18 -1.97,3.97 -2.55,3.55 -3.14,3.13 -3.14,3.14 -3.14,3.14 -3.47,2.71 -3.80,2.29 -4.02,1.80 -4.24,1.32 -4.33,0.79 -4.43,0.26 -4.40,-0.26 -4.36,-0.80 -4.20,-1.31 -4.04,-1.82 -3.77,-2.28 -3.49,-2.73 -3.11,-3.11 -2.73,-3.49 -2.28,-3.77 -1.82,-4.05 -1.31,-4.20 -0.80,-4.36 -0.26,-4.40 0.26,-4.43 0.79,-4.33 1.32,-4.24 1.80,-4.02 2.29,-3.80 2.71,-3.47 3.14,-3.14 3.14,-3.14 L 3.14,-3.14 Z"></path></g><g transform="translate(99.84349440375001 416.09220263404677) rotate(0 0.00005000000000165983 0.00004999999998744897)" stroke="none"><path fill="#1e1e1e" d="M 3.14,-3.14 Q 3.14,-3.14 3.55,-2.55 3.97,-1.97 4.18,-1.28 4.40,-0.59 4.38,0.11 4.36,0.83 4.11,1.51 3.86,2.18 3.41,2.74 2.96,3.30 2.36,3.69 1.75,4.07 1.05,4.25 0.36,4.42 -0.35,4.36 -1.07,4.30 -1.73,4.02 -2.39,3.74 -2.92,3.26 -3.46,2.78 -3.81,2.15 -4.16,1.53 -4.30,0.82 -4.43,0.11 -4.34,-0.59 -4.24,-1.30 -3.92,-1.94 -3.60,-2.59 -3.09,-3.09 -2.59,-3.60 -1.94,-3.92 -1.30,-4.24 -0.59,-4.34 0.12,-4.43 0.82,-4.30 1.53,-4.16 2.15,-3.81 2.78,-3.46 3.26,-2.92 3.74,-2.39 4.02,-1.73 4.31,-1.07 4.36,-0.35 4.42,0.36 4.25,1.05 4.07,1.75 3.69,2.36 3.30,2.96 2.74,3.41 2.18,3.86 1.51,4.11 0.83,4.36 0.11,4.38 -0.60,4.40 -1.28,4.18 -1.97,3.97 -2.55,3.55 -3.14,3.13 -3.14,3.14 -3.14,3.14 -3.47,2.71 -3.80,2.29 -4.02,1.80 -4.24,1.32 -4.33,0.79 -4.43,0.26 -4.40,-0.26 -4.36,-0.80 -4.20,-1.31 -4.04,-1.82 -3.77,-2.28 -3.49,-2.73 -3.11,-3.11 -2.73,-3.49 -2.28,-3.77 -1.82,-4.05 -1.31,-4.20 -0.80,-4.36 -0.26,-4.40 0.26,-4.43 0.79,-4.33 1.32,-4.24 1.80,-4.02 2.29,-3.80 2.71,-3.47 3.14,-3.14 3.14,-3.14 L 3.14,-3.14 Z"></path></g></svg>