<svg version="1.1" xmlns="http://www.w3.org/2000/svg" viewBox="0 0 342.6879196166992 562.0687713623047" width="342.6879196166992" height="562.0687713623047" class="excalidraw-svg">
  <!-- svg-source:excalidraw -->
  
  <defs>
    <style class="style-fonts">
      
    </style>
    
  </defs>
  <rect x="0" y="0" width="342.6879196166992" height="562.0687713623047" fill="#ffffff"></rect><g stroke-linecap="round" transform="translate(10 10) rotate(0 161.3439598083496 271.03438568115234)"><path d="M32 0 C93.14 -0.87, 157.46 0.07, 290.69 0 M32 0 C115.92 -1.27, 200.86 -2.6, 290.69 0 M290.69 0 C312.28 -0.9, 323.55 9.63, 322.69 32 M290.69 0 C311.54 -1.93, 321.84 12.28, 322.69 32 M322.69 32 C322.41 215.77, 322.87 399.85, 322.69 510.07 M322.69 32 C321.07 214.3, 321.16 397.11, 322.69 510.07 M322.69 510.07 C324.02 529.76, 313.1 540.39, 290.69 542.07 M322.69 510.07 C322.55 531.84, 311.14 544.01, 290.69 542.07 M290.69 542.07 C234.26 539.85, 177.83 539.11, 32 542.07 M290.69 542.07 C197.96 540.64, 104.17 540.82, 32 542.07 M32 542.07 C10.03 541.82, 0.79 530.71, 0 510.07 M32 542.07 C9.23 540.74, -0.38 529.39, 0 510.07 M0 510.07 C0.15 404.47, 0.52 297.7, 0 32 M0 510.07 C-1.38 409.19, -0.99 307.85, 0 32 M0 32 C-0.06 11.54, 10.09 0.26, 32 0 M0 32 C-2.03 10.79, 12.91 0.86, 32 0" stroke="#1e1e1e" stroke-width="2" fill="none"></path></g></svg>